<?xml version="1.0" encoding="utf-8"?>
<!-- Generator: Adobe Illustrator 21.0.2, SVG Export Plug-In . SVG Version: 6.00 Build 0)  -->
<svg version="1.1" id="Слой_1" xmlns="http://www.w3.org/2000/svg" xmlns:xlink="http://www.w3.org/1999/xlink" x="0px" y="0px"
	 viewBox="0 0 840 628" style="enable-background:new 0 0 840 628;" xml:space="preserve">
<style type="text/css">
	.st0{fill:#333333;}
	.st1{fill:#969486;}
</style>
<rect id="layer0" class="st0" width="840" height="628.9"/>
<g id="layer1">
	<path class="st1" d="M68,627.2c-1.5-1.1-4.1-5.4-4.7-8c-0.4-1.4,0.1-3.1,1.2-4.5c1.7-2,2.6-2.2,13.1-2.2h11.3l0.8-3.9
		c0.9-4.4,3.3-7.6,5.6-7.6c0.8,0,3,1,4.9,2.1c2.8,1.8,3.3,2.6,2.9,4.5c-0.5,1.7-0.2,2.4,0.9,2.4c0.8,0,1.6-0.8,1.6-1.7
		c0.1-1,0.2-2.3,0.3-3c0.2-1.8,4.7-4.8,9.2-6.1c7.5-2.2,9.5-7.6,3.2-8.9c-2.8-0.5-2.8-0.6-1.1-2.5c3-3.4,6-4,11-2.3
		c4.5,1.5,8.3,1.3,8.3-0.6c0-0.5-0.9-0.9-2-0.9c-1.1,0-2-0.7-2-1.5c0-1.3,2.3-1.5,15-1.5c16.2,0,17.4-0.4,12.6-4.9
		c-8.4-7.9-48.1-10.5-65.9-4.3c-5.5,2-14,7.3-23,14.4c-2.7,2.1-5.5,3.8-6.2,3.8c-0.8,0-2,0.6-2.7,1.3c-3.4,3.5-9.3,4.8-11.5,2.6
		c-0.6-0.6-0.8-3.7-0.6-7.5c0.4-5.4,0.2-6.8-1.3-7.8c-3.6-2.7-1.2-22.5,3-24.8c0.9-0.5,1.6-1.8,1.6-2.9c0-1.1,1.1-4.1,2.4-6.7
		s3.2-7.4,4.2-10.7c1.7-5.9,7.2-13.2,11.8-15.7c2.9-1.6,18.6-4.6,25.2-4.9c7.4-0.3,30.9,1.5,52.4,4.1c11.5,1.3,18.3,2.7,22.5,4.3
		c3.3,1.4,7.6,2.8,9.5,3.2c7.8,1.6,26.6,13.1,33.9,20.7c3.4,3.5,8,10.4,8.6,13.1c0.4,1.5,1.3,3.1,2,3.5c2.2,1.3,3.5,5,2.9,8.2
		l-0.7,3.1l-2.8-2.7c-1.6-1.5-2.9-3.6-2.9-4.6c0-1.1-0.7-1.8-1.9-1.8c-1.5,0-2,0.9-2.3,4.8c-0.8,7.4,3.4,11.8,7.4,7.9
		c0.9-0.9,3.6-1.4,7.4-1.3c3.5,0,7.7-0.6,10-1.6c12.1-5,15.1-6,18.6-6.1c3-0.2,4.1-0.7,5.1-2.7c0.7-1.4,2.6-2.8,4.7-3.4
		c1.9-0.6,4.4-2.2,5.5-3.6c5-6.3,7-8,8.4-7.1c1.7,1.1,0.7,6.1-1.3,6.1c-0.7,0-1.6,1.4-1.9,3c-0.5,2.4-1.2,3-3.2,3
		c-1.5,0-2.5,0.6-2.5,1.5c0,1.8-2.4,3.1-7.5,4.1c-2.2,0.4-5.1,1.5-6.4,2.5c-1.3,1.1-3.9,1.9-5.8,1.9c-3,0-3.6,0.4-5.3,4.5
		c-1.5,3.6-2.8,4.9-6.7,6.7c-2.6,1.2-4.9,2.6-5.1,3s-1.2,0.3-2.2-0.2c-1.3-0.7-2.1-0.5-3,0.5c-0.7,0.8-2.3,1.5-3.6,1.5
		s-2.4,0.5-2.4,1.1c0,0.7-1.1,0.8-2.9,0.4c-2.3-0.5-3.2-0.2-4,1.3c-0.6,1.1-2.2,2.3-3.6,2.6c-1.4,0.4-2.5,1.1-2.5,1.6
		c0,0.6-0.6,1-1.2,1c-3.4,0-8.7,2.3-9.3,3.9c-0.5,1.7-0.7,1.7-4.7-0.2l-4.1-2l-2.6,2.9c-1.4,1.7-3.8,3.6-5.3,4.4
		c-4.7,2.3-3.2,6,2.3,6c1,0,1.9,0.6,1.9,1.4c0,2-2.3,2.5-3.6,0.8c-0.7-1-1.6-1.2-2.5-0.6c-0.8,0.4-2.3,0.7-3.5,0.6
		c-1.1-0.2-2.7,0.5-3.5,1.4c-1.3,1.6-1.2,1.7,0.8,1.2c1.4-0.4,2.4-0.1,2.8,0.9c0.4,1.3-0.3,1.5-4.9,1.1c-4.2-0.3-5.3-0.2-4.9,0.9
		c0.3,0.7,0.2,2-0.1,2.9c-0.5,1.3-0.9,1.2-2.8-0.5c-1.3-1.3-3.5-2.1-5.5-2.1h-3.2l2.2,2.3c1.2,1.3,2.5,2.2,3,2
		c0.4-0.2,0.7,0.5,0.7,1.6c0,2.1-0.2,2.1-49.2,2.1C91.2,628,68.5,627.6,68,627.2z M191.5,572.1c0-0.6-0.4-1.3-1-1.6
		c-0.5-0.3-1,0.1-1,0.9c0,0.9,0.5,1.6,1,1.6C191.1,573,191.5,572.6,191.5,572.1z M182.5,568c0-2.4-4.8-5.7-9.1-6.4
		c-2.4-0.4-6.2-1.7-8.5-3c-2.3-1.3-5.9-2.6-8-3c-2.1-0.4-6.6-1.6-9.9-2.6s-7.3-1.8-9-1.9c-3.9,0-20.3-2.7-23.5-3.8
		c-2.1-0.8-13.9-0.2-23,1.1c-9.3,1.3-12.1,2-13.7,3.2c-2.2,1.6-3.8,1.5,28.7,1.9c21.8,0.2,23.7,0.3,26.9,2.3
		c1.9,1.1,6.6,2.6,10.5,3.2c11.1,1.8,14.6,2.9,17.2,5.7c2.1,2.3,2.9,2.5,7.9,2.1c3.9-0.3,5.9-0.1,6.6,0.9
		C176.9,569.2,182.5,569.5,182.5,568z M59,555.2c0-1.8-2-1.5-2.3,0.4c-0.3,1,0.1,1.5,1,1.2C58.4,556.5,59,555.8,59,555.2z M73.5,552
		c0-0.5-0.4-1-0.9-1c-0.6,0-1.3,0.5-1.6,1c-0.3,0.6,0.1,1,0.9,1C72.8,553,73.5,552.6,73.5,552z M64.5,548.5c0-0.8-0.4-1.5-1-1.5
		c-0.5,0-1,0.7-1,1.5s0.5,1.5,1,1.5C64.1,550,64.5,549.3,64.5,548.5z"/>
	<path class="st1" d="M200.5,627.3c0-0.5,1.6-2.6,3.6-4.8c3.3-3.8,3.8-4,8.6-3.8c2.8,0.1,5.3,0.4,5.5,0.7c0.9,0.8-3.2,4.6-4.9,4.6
		c-1,0-2.6,0.9-3.5,2c-1.2,1.3-3,2-5.5,2C202.2,628,200.5,627.7,200.5,627.3z"/>
	<path class="st1" d="M220.3,626.8c0.9-0.9,1.5-0.9,2.4,0c0.9,0.9,0.7,1.2-1.2,1.2C219.6,628,219.4,627.7,220.3,626.8z"/>
	<path class="st1" d="M362.7,626.8c-1.5-1.5-1.6-4.8-0.2-4.9c6-0.5,13,2.1,13,4.9C375.5,628.4,364.3,628.4,362.7,626.8z"/>
	<path class="st1" d="M650.2,627.3c-0.4-0.3-0.7-1.6-0.7-2.8c0-1.1-1.1-3.6-2.5-5.5c-1.4-1.9-2.5-4-2.5-4.7c0-0.7-1.1-2-2.5-2.9
		c-3.3-2.1-3.2-5,0.3-6.8c1.5-0.8,3.9-2.7,5.4-4.2c4-4.4,7.8-7.4,9.3-7.4c0.8,0,1.5-1,1.7-2.2c0.2-1.6,1-2.3,2.6-2.4
		c2-0.1,2.7,0.7,2.3,2.9c0,0.4,0.4,0.7,0.9,0.7c1.6,0,1.2-3.8-0.5-4.7c-0.8-0.5-1.6-1.7-1.7-2.8c-0.4-3.7,1.4-11.7,2.8-12.2
		c0.8-0.3,1.4-1,1.3-1.7c-0.4-3.4,0.2-4.6,2.6-4.6c1.9,0,2.5-0.5,2.5-2.2c0-1.2,0.6-2.9,1.3-3.7c1.8-2.1,4.2-10.9,3.3-11.9
		c-0.4-0.4-1.4,0.2-2.1,1.2c-0.8,1-2.5,2.4-3.7,3c-1.3,0.6-2.4,2.2-2.6,3.4c-0.2,1.2-0.8,2.2-1.3,2.2c-1.5,0-6.9,4.2-6.9,5.4
		c0,0.6-1.1,2.4-2.5,4l-2.5,2.9v-2.9c0-1.7,0.5-3.5,1.2-4.2c1-0.9,0.9-1.5-0.3-2.7c-1.3-1.3-1.7-1.3-3.7,0.1
		c-1.2,0.8-2.2,2.4-2.2,3.5c0,2.1-2.8,2.6-3.6,0.6c-0.3-0.8,0-2.6,0.5-4c0.9-2.4,0.8-2.7-1-2.7c-1.2,0-3.9,1.8-6.1,4
		c-3.3,3.3-4.7,4-7.9,4c-2.8,0-3.9-0.4-3.9-1.5c0-1.7,2.6-6,5.1-8.6c0.9-0.9,2.6-3.4,3.9-5.7c1.2-2.2,3.4-4.6,4.7-5.3
		s3.3-3.1,4.3-5.4c1-2.2,3-5.1,4.5-6.5c1.5-1.4,3.4-3.8,4.2-5.5c2-3.7,4.6-6.6,21.7-23.6c7.5-7.5,15.2-14.4,17.1-15.3
		s4.7-2.8,6.4-4.1c4.2-3.6,10.4-5.5,18-5.5c7.2,0,14.6,3,22.6,9.1c6.7,5,13.9,9.6,17.8,11.2c5,2.2,9.3,6.8,10.1,11.1
		c0.7,3.8,4.3,11.8,8.1,18.1c1.3,2.2,3.6,7.3,5.1,11.5c2.7,7.3,7.9,19.2,13.1,29.6c1.4,2.7,2.3,5.9,2,7c-0.5,1.8-0.5,1.7-1.2-0.3
		c-0.4-1.3-1.1-2.3-1.6-2.3s-1.6-1.7-2.4-3.7c-2-4.8-6.2-10.3-7.9-10.3c-0.7,0-2.1-0.9-3.2-2.1c-3-3.3-6.4-4.6-15.3-6
		c-13.9-2-32.2,0-38.3,4.3c-1.4,1-3.3,1.8-4.1,1.8c-2.3,0-4.3,2.8-2.9,4.2c0.8,0.8,2.8,0.6,7.4-0.8c11-3.3,35.4-1.8,39.8,2.6
		c0.9,0.9,3.6,2.8,6,4.1c4.1,2.3,5.2,3.8,11.6,15.8c1.3,2.4,2.4,5.7,2.4,7.4c0,1.8,1.1,4.2,3,6.4c4.6,5.1,4,7.5-2.9,12.9
		c-4.8,3.8-6.5,5.8-8.8,11l-2.7,6.4h-62.2C678.8,628,650.5,627.7,650.2,627.3z M666,599c0.3-0.5,0.3-1.5-0.1-2.1
		c-0.6-1.1-2.3,0.6-2.4,2.4C663.5,600.3,665.3,600.2,666,599z M772.5,587.7c0-1.8-2.1-3.7-4-3.7c-0.9,0-2.5-0.8-3.6-1.8
		c-2-1.9-8.4-2.9-8.4-1.3c0,1.2,2,2.5,4,2.6c0.8,0,1.6,1,1.8,2.2c0.3,2.1,1.3,2.5,8.5,3.1C771.7,588.9,772.5,588.4,772.5,587.7z
		 M753.5,580.6c0-1.8-3-3-4.3-1.7c-0.5,0.5-0.6,1.4-0.3,2C749.9,582.5,753.5,582.2,753.5,580.6z M654.5,552.8c0-2.3-1.8-3.2-3.5-1.8
		c-0.9,0.7-1.5,2.9-1.5,5.4l0.1,4.1l2.4-3C653.4,555.9,654.5,553.7,654.5,552.8z M681.5,543c0-0.5-0.2-1-0.4-1c-0.3,0-0.8,0.5-1.1,1
		c-0.3,0.6-0.1,1,0.4,1C681,544,681.5,543.6,681.5,543z M694.1,538.6c3.8-3.5,3.9-5.6,0.1-5.6c-2.9,0-4.6,1.2-6.1,4.1
		c-0.6,1.3-2.3,2.9-3.6,3.6c-2.4,1.2-2.3,1.3,1.7,1.3C689.6,542,691.1,541.3,694.1,538.6z"/>
	<path class="st1" d="M180.8,625.1c-3-2.5-2.9-3.9,0.2-3.7c1.4,0,2.5,0.4,2.5,0.8s0.9,1,2,1.3c1.1,0.3,2,1.3,2,2.1
		C187.5,627.6,183.4,627.3,180.8,625.1z"/>
	<path class="st1" d="M352.7,626.2c-1.6-0.2-2.2-0.8-1.8-1.9c0.3-0.8,0.6-1.9,0.6-2.4c0-1.5,1.9-1,3.9,1
		C357.7,625.2,356.4,626.8,352.7,626.2z"/>
	<path class="st1" d="M282.6,622.6c-0.9-1-0.9-1.6-0.1-2.1c1.7-1,3.7,1.2,2.4,2.5C284.1,623.8,283.4,623.6,282.6,622.6z"/>
	<path class="st1" d="M346.5,622.5c0.7-0.8,1.6-1.5,2.1-1.5s0.9,0.7,0.9,1.5c0,0.9-0.9,1.5-2.1,1.5
		C345.6,624,345.5,623.8,346.5,622.5z"/>
	<path class="st1" d="M383.5,620.1c0-0.6,0.5-1.3,1-1.6c2-1.2,0.9-2.4-2.9-3.6c-4.1-1.2-6.1-3.7-4-5c2.8-1.7,9.2-1.9,11.6-0.4
		c2.2,1.5,2.6,1.4,5.3-0.5c2.9-2,3.1-2,6.5-0.4c3.4,1.6,3.5,1.8,1.9,3.5c-0.9,1-1.3,2.2-1,2.8c1.1,1.8-3.4,4.1-6.1,3
		c-1.3-0.5-3.6-0.9-5-0.9c-2,0-2.3,0.3-1.4,1.4c0.9,1.1,0.7,1.5-1.1,2C385,621.2,383.5,621.1,383.5,620.1z"/>
	<path class="st1" d="M346.1,612c-4-2.6-4.4-3.4-3.5-8.8c0.6-4.1,0.5-4.9-1.4-6.4c-1.2-0.9-1.9-1.8-1.7-2c0.3-0.2,2.2-1.9,4.3-3.8
		c3.7-3.4,3.9-3.4,5-1.5c0.6,1.1,1.2,3.1,1.3,4.4c0.2,1.3,1.3,3,2.5,3.9c1.9,1.3,2,2.1,1.5,6.4c-0.8,5.7-2.5,9.8-4,9.7
		C349.5,613.9,347.7,613,346.1,612z"/>
	<path class="st1" d="M317.6,610.4c0-1.1,0.3-1.4,0.6-0.6c0.3,0.7,0.2,1.6-0.1,1.9C317.8,612.1,317.5,611.5,317.6,610.4z"/>
	<path class="st1" d="M307,610c-1-1.6,1.5-5.2,3.2-4.6c0.8,0.3,1.9,0.6,2.4,0.6s0.9,0.7,0.9,1.5s-0.7,1.5-1.5,1.5s-1.5,0.5-1.5,1
		C310.5,611.3,307.8,611.3,307,610z"/>
	<path class="st1" d="M407.7,605.5c-0.8-1-3.1-1.5-6.2-1.5c-4.8,0-6.6-1.2-3.5-2.4c1.6-0.6,2.1-4.1,0.6-5c-0.5-0.3-7.4-0.6-15.3-0.7
		c-10.1,0-14.7-0.5-15.8-1.4c-0.8-0.7-3.2-1.5-5.2-1.9c-3.1-0.6-3.7-1.1-4-3.4c-0.3-2.3-0.7-2.7-3.2-2.5c-3.8,0.3-5-0.7-6.6-5.7
		c-0.7-2.2-1.9-4-2.6-4c-1.3,0-2.4-2.2-2.4-4.7c0-0.9-1-2.4-2.1-3.4c-1.9-1.6-2-1.9-0.5-2.5c2.5-1,2-4.3-0.8-5
		c-1.3-0.3-3.2-0.5-4.2-0.3c-1.1,0.1-2.8-0.1-3.9-0.5c-1.1-0.5-3.3-1.3-5-1.9c-6-2.1-7.3-5.3-3.3-8.1c1.8-1.3,2-1.9,1.1-3.8
		c-2-4.1-2.4-6-1.4-7.2c1.2-1.5,0.9-3.9-0.8-5.9c-0.7-0.9-1.6-2.8-2-4.4c-0.5-1.8-1.5-2.9-2.9-3.1c-1.7-0.3-2.3,0.4-3,3l-0.8,3.3
		l-1.2-3.2c-0.6-1.8-1.4-3.3-1.7-3.3c-1.7,0-6.5,3.2-6.5,4.3c0,0.7-1.6,2.8-3.5,4.7c-2.2,2.2-3.3,4-3,5.1c0.3,0.9-0.1,1.9-0.9,2.2
		c-0.8,0.3-1.8,2.2-2.2,4.1c-0.7,4.1-1.3,4.3-4.5,1.7c-2.2-1.7-2.2-2.1-0.9-4.5c0.7-1.5,2.5-3.2,3.9-3.9c1.3-0.7,2.5-1.9,2.6-2.7
		c0.4-2.3,6.3-10.7,8-11.4c0.8-0.3,1.5-1.8,1.5-3.3c0.1-3,2.8-7.9,7.3-13.2c2.3-2.8,3.2-3.2,5.7-2.7c2.3,0.4,3.2,0.1,4.1-1.5
		c0.6-1.1,1.6-1.9,2.2-1.6c2.2,0.8,5.7-1.2,5.7-3.3c0-1.3,0.7-2,2-2c3.7,0,13-4.4,13-6.2c0-2.5-1.7-3.1-4.2-1.4
		c-1.2,0.9-3.1,1.6-4.1,1.6c-1.8,0-12.2,5.2-14.1,7.1c-0.6,0.5-2.1,0.9-3.5,0.9c-3,0-9.2,2.1-11.2,3.7c-0.8,0.6-7,3.4-13.9,6.3
		c-6.9,2.8-12.9,5.6-13.4,6.1c-1.8,1.7-6.5,1-7.6-1.2c-0.7-1.1-2-2.9-3.1-4c-1.6-1.6-1.7-2.3-0.9-4c0.6-1.1,1.9-2.3,2.8-2.5
		c0.9-0.3,4.9-2.1,8.7-3.9c3.9-1.9,8.3-3.7,9.9-4c1.7-0.3,4.2-1.5,5.7-2.6c1.6-1.1,5.6-3,9.1-4.3c9.7-3.6,14.2-5.7,15-7
		c1.9-2.9,0.6-3.4-10.9-3.8c-11.1-0.4-11.7-0.6-13.7-3.1c-1.2-1.4-6.4-4.6-11.6-7c-11.5-5.4-20.2-6.8-37.7-6.3
		c-10.3,0.3-12.8,0.7-15.5,2.5c-8.8,5.6-10.7,5.2-8.9-1.7c1.5-5.3,0.4-12.2-2.3-14.5c-2.1-1.9-2.1-1.8-2.9,2.1
		c-1.2,6.2,1.3,17.4,4.2,18.7c1.5,0.7,2,1.6,1.7,2.9c-0.2,1,0,2.9,0.6,4.2c0.9,1.9,0.8,2.7-0.2,3.7c-1,0.9-1.3,0.9-1.7-0.1
		c-1.2-3.3-5.7-7.2-10-8.6c-2.6-0.9-5.9-2.7-7.3-4c-1.4-1.3-4.3-2.9-6.5-3.6c-2.2-0.7-8.3-3.7-13.6-6.6c-5.2-3-9.9-5.4-10.3-5.4
		c-0.4,0-3.6-1.3-7.1-2.9c-3.4-1.6-8.7-3.6-11.6-4.5c-3-0.9-10.6-3.1-16.9-5s-15.8-4-21-4.6c-5.2-0.6-12-1.6-15-2.2
		c-6.4-1.2-8.3-1.5-12.8-1.7c-4.4-0.1-5.1-2.5-1.8-6c1.4-1.5,2.6-3.4,2.6-4.3c0-0.9,1.6-3.9,3.5-6.7c1.9-2.8,3.5-5.5,3.5-6
		s2.2-2.9,5-5.2c3.3-2.8,5-5,5-6.5c0-1.3,1.4-3.8,3.1-5.5c1.7-1.8,3.8-4.7,4.5-6.6c0.8-1.8,2.1-3.3,2.9-3.3c0.8,0,3.4-1.9,5.7-4.3
		c2.4-2.3,6.3-5.6,8.8-7.2s8.9-7.2,14.3-12.5c5.4-5.2,10.5-9.9,11.5-10.4c1.6-0.9,3.4-2.7,14.6-14.5c2.2-2.4,5.5-5.3,7.2-6.5
		c1.7-1.2,5.6-3.9,8.5-6.2c7.7-5.8,16.8-11,21.1-12.2c2.1-0.6,5-1.9,6.5-3c1.5-1,5-2.9,7.7-4.1c2.6-1.1,6.3-3.4,8.1-5
		c1.9-1.6,4.7-3.2,6.4-3.6s3.3-1.1,3.7-1.6c0.6-1,11-5.9,12.4-5.9c0.5,0,5.5-2.2,11.2-4.9c5.8-2.7,11.9-5.2,13.8-5.6
		c1.8-0.4,5-2.4,7-4.4s6.8-6.6,10.6-10.3c3.8-3.7,8.9-9,11.4-11.8c6-6.9,6.5-7.4,15.3-15.9c4.3-4,7.7-7.7,7.7-8.2s1.9-2.9,4.3-5.3
		l4.2-4.4l12.1-0.3c10.2-0.3,12.5-0.7,14.3-2.3c2-1.9,2-1.9,0.1-4.4c-1.1-1.3-2-3.6-2-4.9c0-1.4-1-3.9-2.2-5.5
		c-1.9-2.8-2.1-4.4-2.3-20.5c-0.2-21.1,0.4-23.9,7.1-35.4c1.8-3.1,4.6-5.9,6-5.9s4.9,5.5,8.9,13.8c3,6.2,3.1,7.5,0.8,7
		c-1-0.2-1.8-1-1.8-1.8s-0.9-1.7-1.9-2c-1.1-0.3-2.4-1.9-2.9-3.5c-1.4-4.2-2.6-5.5-5.2-5.5c-2.7,0-4.1,1.5-4.9,5.7
		c-0.4,1.7-1.3,3.7-2,4.2c-1.3,1.1-1.3,3.2-0.6,13.6l0.2,3l1.3-3c0.7-1.7,2.1-3,3.1-3c1.1,0,2-1,2.4-2.5c0.3-1.4,1.2-2.5,2-2.5
		c1.8,0,2.8,11.4,1,11.6c-0.5,0.1-1.6,0.2-2.2,0.3c-0.7,0-1.6,1.2-1.9,2.6c-1.2,4.8-2.1,7-3.1,7c-0.6,0-0.8-0.7-0.4-1.5
		c0.3-0.8,0.1-1.5-0.4-1.5c-1.5,0-3,7.1-2.4,11.2c0.6,3.2,1.1,3.8,3,3.8c2.1,0,2.4-0.5,2.4-3.6c0-3.4,0.1-3.5,3.2-3.2
		c2.4,0.2,3.6,1,4.6,3.1c0.7,1.5,2,2.7,2.8,2.7c0.7,0,1.4,0.7,1.4,1.5c0,0.9-0.6,1.2-1.6,0.8s-1.7,0.1-2.1,1.6
		c-0.7,2.9-3,2.6-4.7-0.6l-1.4-2.8l-1,2.5c-0.7,1.8-0.6,4.3,0.5,8.4c1.6,6.4,0.9,12.3-1.7,13.7c-3.4,1.7-12.5,3.9-16.1,3.9
		c-3.4,0-4.1,0.4-5,2.7c-0.7,1.9-0.7,3.5,0,5c1.1,2.5-0.8,5.3-3.5,5.3c-0.8,0-1.3,0.4-0.9,0.9c0.3,0.5,0.1,1.2-0.5,1.6
		c-0.5,0.3-1,1.4-0.9,2.3c0,1.1,0.3,1.2,0.6,0.5c0.2-0.7,1.4-1.3,2.4-1.3c1.1,0,1.7-0.5,1.4-1c-0.3-0.6,0.2-1.3,1.2-1.7
		s2.2-1.1,2.6-1.7c0.4-0.6,0.5,0.3,0.1,1.9c-0.3,1.9-0.2,2.5,0.3,1.7c0.7-0.9,1.3-0.6,2.3,1.4c1.3,2.4,1.2,2.7-0.9,4.3l-2.3,1.8
		l3.5,1.6c4.8,2.3,5.6,2.2,7.3-1.5c1.2-2.5,1.4-2.7,1-0.8c-0.3,1.4-0.6,4.7-0.6,7.4c0,3.9-0.3,4.7-1.5,4.2c-1.2-0.4-1.5,0.1-1.3,2.8
		c0.1,1.9-0.4,4.1-1.1,4.9c-1,1.3-0.8,1.8,1.9,3.2c5,2.6,7.3,1.7,8.8-3.5c3.4-12.4,5.3-24,5.2-31.7c-0.1-5.3,0.2-8.3,0.9-8.3
		c1.5,0,2.2,4.5,3.1,20c0,0.8-0.5,4.3-1.3,7.8c-0.9,4.3-2,6.7-3.5,7.8c-1.5,1-2.1,2.2-1.7,3.4c0.3,1-0.2,2.5-1.2,3.6
		c-1,1-1.7,1.9-1.5,2.1c0.1,0.2,0.2,1.4,0.2,2.8c0,1.8-0.5,2.5-2,2.5c-1.6,0-2,0.7-2,3.8c0,2.1-0.7,4.8-1.7,6.1
		c-0.9,1.3-1.6,3.9-1.5,5.7c0.1,2.8-0.3,3.5-2.3,4c-3.3,0.8-4.8-0.4-4.1-3.1c0.3-1.3,0.2-2.7-0.4-3c-1.9-1.2-1-4.2,1.7-5.4
		c1.9-0.9,2.3-1.5,1.5-2.3c-2.1-2.1-6.5,0.3-7.3,3.8c-0.3,1.7-1.6,5.2-2.9,7.8c-2.3,4.8-2.1,6.1,0.8,6.1c1.4,0,1.7,1.2,1.8,7
		c0,4.3,0.9,9.3,2.1,13c1.2,3.3,2.4,7.2,2.7,8.7c0.3,1.5,1.5,3,2.7,3.3c1.1,0.4,2.5,1.6,3,2.8c0.6,1.2,2.5,2.9,4.2,3.8
		c2,0.9,4.2,3.4,5.9,6.5c1.4,2.7,3.4,5.7,4.3,6.6c1,0.9,2.1,3.6,2.5,6c0.7,3.5,2.2,5.7,7.4,11c3.6,3.7,6.6,7.4,6.6,8.2
		c0,2.2,1.6,2.8,3,1.1c1.4-1.7,4-2,4-0.5c0,0.6,0.6,1,1.3,1c0.8,0,2.2,0.9,3.3,2.1c2.4,2.7,7.2,5.2,8.4,4.4c0.6-0.3,1.5-0.3,2.1,0
		c3.8,2.4,38,2,39.3-0.4c1-1.9,1.4-5.8,0.6-7.1c-0.7-1.2-1.4-1.1-4.7,0.6c-2.1,1-3.9,2.2-4.1,2.6c-0.2,0.4-1.2-0.2-2.3-1.3
		c-2.5-2.5-5.3-2.1-5.7,0.9c-0.3,1.7-1,2.2-3.2,2.2c-3,0-4.7-1.4-3-2.5c0.5-0.3,0.9-1.8,0.9-3.3c-0.2-2.5-0.2-2.5-0.6-0.3
		c-0.4,2-0.9,2.2-3.3,1.8c-1.8-0.4-3.2-0.1-4,0.8c-0.8,1-2.1,1.3-3.7,0.9c-1.7-0.5-2.8-0.1-3.9,1.2c-1.4,1.8-1.5,1.8-3.3-0.3
		c-1.1-1.3-2.5-2.3-3.3-2.3c-0.7,0-2.5-0.8-3.8-1.7c-1.4-1-3.3-1.6-4.2-1.5c-1.2,0.2-1.8-0.3-1.8-1.6c0-1.1-0.7-2.6-1.6-3.3
		c-1.5-1.2-1.6-1.1-1,0.9c0.8,2.5,0.1,2.8-2,0.8c-1.6-1.7-1.9-5.2-0.4-6.1c1.3-0.8,1.3-5.1,0-7.5c-0.6-1.1-2.6-2.2-4.5-2.6
		c-1.9-0.3-3.5-1-3.5-1.5c0-0.4-0.9-0.6-1.9-0.4c-2.2,0.4-6.6-3.8-5.6-5.4c1.4-2.4,8.5-0.1,8.5,2.8c0,1.2,3.8,1.5,6.4,0.5
		c0.9-0.3,1.6-1.1,1.6-1.7c0-0.7-0.4-0.7-1.2,0.1c-1.6,1.6-2.5,1.5-3.1-0.2c-0.4-1-0.1-1.3,0.9-0.9c0.7,0.3,1.4,0.1,1.4-0.5
		s-1.3-1.3-2.9-1.7c-1.6-0.3-3.5-1.3-4.2-2.1c-0.6-0.8-1.8-1.4-2.6-1.4c-0.7,0-1.6-0.7-1.9-1.5c-0.5-1.3-9.2-7.7-13.5-10
		c-1-0.5-1.9-1.5-1.9-2.2c0-2.6,4.2-1.2,8,2.7c2.5,2.6,4.8,4,6.5,4c1.4,0,2.5-0.4,2.5-0.9c0-0.6,1.2-0.6,3.2-0.1
		c1.7,0.5,4.2,0.7,5.5,0.4c2.7-0.7,2.9,0.3,0.8,3.3c-0.8,1.2-1.2,2.3-0.8,2.6c1.5,0.7,8-0.1,10.3-1.3c2.3-1.3,7-0.6,7,1
		c0,0.6-0.9,1-1.9,1c-1.1,0-2.2,0.4-2.5,0.9c-0.9,1.4,1.5,2.8,5.9,3.7c5.6,1,7.2,2.8,5.4,6c-1.1,2.1-1.1,2.7,0.1,3.4
		c2,1.3,3,0.3,3-3.1c0-3.4,1.2-3.7,3.9-0.8c1.3,1.5,2.7,2,4.2,1.6s2.3-0.1,2.6,1.3c0.3,1,1.3,2,2.4,2.3c1.1,0.3,1.9,1.4,1.9,2.7
		c0,2.2,0.3,2.2,6.1,1.6c3.3-0.4,6.8-1,7.7-1.3c0.9-0.3,1.4-0.3,1,0.1c-1.5,1.8,2.7,4.6,6.8,4.6c2.5,0,4.7,0.6,5.4,1.5
		c2.5,3.1,6.3,0.8,8.3-4.9c0.5-1.4,4.6,0.3,5.7,2.4c0.9,1.6,0.5,2.2-2,3.5c-1.7,0.9-3,2.4-3,3.4s-0.7,2.4-1.5,3.1
		c-1.6,1.3-2.1,5-0.7,5c2.1,0,12.6-7.7,19.5-14.2c1.6-1.6,3.5-2.8,4.3-2.8c0.7,0,2-1.3,2.9-2.9c0.8-1.7,2.6-4.2,4-5.7
		s2.5-3.6,2.6-4.8c0.3-5.1-0.4-8.2-1.8-9.3c-1.7-1.3-1.1-1.8,3.2-2.5c1.3-0.2,2.2-1.3,2.5-3.3c0.5-2.9,0.8-3,5.3-2.8
		c4.6,0.1,6-1,3.8-3.3c-0.5-0.5-1.6-3.4-2.3-6.4c-0.8-3-2-5.5-2.6-5.5c-0.7,0-1.1,0.3-0.9,0.7c0.1,0.4-1.5,2-3.6,3.4
		c-2.8,1.9-3.6,2.9-2.8,3.7c1.6,1.6,1.4,2.5-0.8,3.7c-2.6,1.3-5.8-1.5-4.1-3.6c0.7-0.7,0.9-2.2,0.5-3.3c-0.6-2.1,2.6-5.1,5.7-5.1
		c2.2,0,2.4-1.6,0.2-2.4c-2.9-1.1-0.2-2.7,4.2-2.5c2.8,0.2,4.9,0.9,5.5,1.8c0.8,1.4,1.1,1.4,2.4-0.3c0.8-1.1,1.5-3.2,1.5-4.8
		c0-1.5,0.4-2.8,0.9-2.8c1.5,0,2.1-3,1.1-5c-0.6-1.1-1.4-2.8-1.9-3.8c-0.5-1.1-0.5-2.5-0.1-3.3c1-1.6-0.6-3.9-2.7-3.9
		c-1,0-1.1-0.5-0.4-1.9c0.7-1.2,2.7-2.1,5.8-2.6c5.2-0.7,7.3-2,7.3-4.1c0-0.9-1.1-1.4-3-1.4c-3.2,0-3.7-0.9-1.8-2.8
		c0.8-0.8,0.8-1.5,0.2-2.1c-1.1-1.1-13.4-2.6-13.4-1.6c0,0.4,1.1,1.6,2.5,2.7c1.6,1.3,2.5,2.9,2.5,4.9c0,3.7-1.5,3.7-8-0.1
		c-2.8-1.7-5.5-3-6-3s-1.8-1.3-3-2.9c-2.6-3.8-5.3-4.6-8.3-2.6c-2.8,1.8-5.7,1.1-5.7-1.5c0-1.7-3.8-3.4-7.9-3.5
		c-0.8,0-1.9-1.5-2.3-3.3c-1-3.8-3.3-4.2-4.2-0.7c-0.7,2.6-3.6,3.5-3.6,1.1c0-2.1-6.2-3-7.7-1c-0.8,1.1-2.5,1.5-6,1.4
		c-7.1-0.3-7.2-0.2-9.7,2.5c-2.2,2.4-2.5,2.4-5.2,1c-3.6-1.9-4.8-1.9-6.4,0c-1,1.2-0.8,2,0.9,4.1c1.6,2,1.8,2.9,0.9,3.5
		c-0.9,0.6-0.9,1.8-0.2,4.6c0.8,3.4,1.2,3.8,4.5,4.1l3.7,0.3l-0.2-4.5c-0.1-2.5-0.5-4.9-0.9-5.2c-1.7-1.7-0.5-3,2.2-2.6
		c4.1,0.6,10,5.6,8.4,7.2c-1.4,1.5-0.6,4,1.2,4c0.8,0,1.9,1.5,2.6,3.4c0.9,2.5,1.7,3.2,3.1,2.8c2.2-0.5,2.4-3.1,0.3-4.6
		c-1-0.8-1.2-1.5-0.5-2.6c0.9-1.3,1.2-1.3,2.1,0.3c0.6,0.9,1.4,1.5,2,1.2c1.5-1,1-3.5-0.8-4.2c-2.6-0.9-6.3-4.5-5.7-5.4
		c0.3-0.5,1.7-0.9,3.2-0.9c1.9,0,3.2,0.8,4.4,3c1.1,2,2.5,3,4.1,3c1.3,0,2.7,0.3,3,0.7c0.4,0.3,3.1,1.5,5.9,2.5
		c4,1.4,6.7,1.7,11.1,1.2c8.1-0.9,11.7,0.7,11.7,5.1c0,2.8,0.4,3.4,2.8,4c2.7,0.6,2.8,0.7,2.6,6.7c-0.3,6.5-1.5,8.3-4.6,6.7
		c-1-0.6-2.3-0.7-2.9-0.4c-0.5,0.4-1.6,0.1-2.4-0.5c-1-0.9-1.1-1.8-0.4-3.8c1.5-3.9-0.5-5.1-10-5.9c-7.5-0.6-8.4-0.8-9.4-3
		c-0.9-2-1.7-2.4-3.9-2.1c-2.4,0.4-2.9,0-3.9-2.9c-1-3.2-2.3-4.1-3.2-2.5c-0.3,0.4,0.1,2.5,0.9,4.7c1.7,5,1.8,7.2,0.2,7.8
		c-2.9,0.9,5.5,3.7,12.7,4.1c4.3,0.3,8,0.8,8.3,1.1c0.3,0.3,0,1.6-0.6,3c-1.9,4.2-1.5,5.7,1.6,5.4c7.6-0.6,10.9,1.1,5.9,3
		c-1.2,0.5-3.1,2.1-4.2,3.5c-1.1,1.4-2.5,2.6-3.2,2.6c-0.7,0-1.3,0.5-1.3,1c0,0.6,0.9,1,2,1c2.3,0,2.5,0.8,0.6,3.3
		c-1.1,1.4-1.9,1.6-3.3,0.9c-1.2-0.6-3.4-0.4-6.8,0.8c-4.1,1.3-5.1,2.1-5.3,4.2l-0.3,2.6l-2.6-2.4c-1.4-1.3-3.2-2.4-3.8-2.4
		c-0.7,0-1.5-0.7-1.9-1.5c-0.7-1.9-3.3-0.9-3.9,1.6c-0.3,1-1,1.9-1.6,1.9c-0.7,0-0.9-0.9-0.5-2.4c0.5-2,0.2-2.5-1.8-2.8
		c-1.8-0.2-2.2-0.8-2-2.9c0.3-3.4-2.2-5.7-4.3-3.9c-0.8,0.6-1.9,0.9-2.5,0.5c-1.7-1.1-4.1-6.5-4.2-9.6c-0.1-1.6-0.5-2.9-0.9-2.9
		c-0.5,0-1.8-1.8-2.9-4c-1.8-3.6-3-4.5-5.2-4.1c-0.5,0-0.8-0.5-0.8-1.3c0-0.7-0.7-1.9-1.5-2.6c-1.3-1.1-1.3-1.5,0-3.3
		c2.3-3.3,1.8-5.4-2-8.8c-1.9-1.8-3.5-3.8-3.5-4.4c0-0.7-0.9-2-2-3c-1.5-1.3-2-3-1.9-5.9c0.1-5.6-2.4-16-3.6-14.9
		c-0.5,0.4-0.2-0.1,0.8-1.3c0.9-1.1,1.7-2.5,1.7-3.1c0-1.7-3.8-2.2-5.1-0.7c-1.9,2.3-2.6,0.7-2.2-5.3c0.7-8.6,1.9-11.6,5.3-13.1
		c1.9-0.9,3-2.1,3-3.3c0-1.6-0.3-1.8-1.9-0.9c-3,1.5-4.6,1.3-3.1-0.5c0.6-0.8,0.9-1.9,0.5-2.6c-0.4-0.6-0.3-1.4,0.3-1.8
		c1.3-0.8,0.5-5.1-0.9-5.1c-0.5,0-0.9,0.9-0.9,2c0,1.1-0.7,2-1.5,2c-1.9,0-1.9-1.4-0.1-2.9c2.9-2.4,3.1-17.5,0.2-16.9
		c-1.5,0.3-5.6-2-5.6-3.2c0-0.6,0.7-1,1.5-1c1.9,0,2-1.6,0.1-2.3c-1.6-0.6-3.1-5.7-1.9-6.6c1.1-0.8,1.3-4.2,0.2-3.5
		c-0.5,0.3-0.9-1-0.9-3c0-3.4-0.1-3.4-3.7-3.1c-2.1,0.1-4.1-0.2-4.5-0.9c-1.4-2-0.8-3.6,1.2-3.6c1.2,0,1.7-0.5,1.4-1.3
		c-0.3-0.8-1.5-1.3-2.7-1.3c-3.3,0.1-2.6-2.1,1.3-4.3c2.8-1.5,3.8-2.8,4.9-6.7c1.1-3.9,1.5-4.5,2.5-3.4c2.3,3,5.5,1.9,5.6-1.8
		c0-1-0.8-1.2-3-0.7c-3,0.7-3,0.6-1.9-1.9c0.7-1.4,1.5-2.6,1.9-2.6c0.3,0,1.2-1.7,2-3.7c0.7-2.1,1.9-4.2,2.6-4.8
		c0.7-0.5,1.4-2.3,1.6-4c0.2-2.3,0.9-3.1,2.7-3.3c1.3-0.2,2.8,0.1,3.4,0.7c0.7,0.7,1.6,0.7,3-0.1c1.6-0.8,1.7-1.2,0.6-1.9
		c-2.1-1.3,0.1-4.1,4.1-5.2c4.4-1.1,5.5,0.7,2.7,4.7c-1.1,1.6-1.6,2.7-1.1,2.3c1.4-0.8,3.8,0.9,3,2.2c-0.4,0.6-2,1.1-3.6,1.1
		s-3.2,0.5-3.5,1c-0.3,0.6-1.5,1-2.6,1c-2.8,0-4.6,2-4.1,4.7c0.5,2.8,1.4,2.9,3.8,0.2c1-1.1,2.6-1.8,3.6-1.6c1,0.3,2.1,0.1,2.4-0.4
		c0.3-0.5,1.4-0.9,2.5-0.9c1.2,0,1.9-0.7,1.9-1.9c0-1.1,0.9-2.3,2.2-2.7c2.1-0.6,2-0.8-1.2-2.4c-3-1.5-3.1-1.7-1.1-2.3
		c1.7-0.4,2.1-1.3,2.1-4.4c0.1-6.9,2.6-14.8,3.7-11.5c0.3,0.6,1.7,1.2,3.2,1.2s3.2,0.5,3.9,1.2c0.9,0.9,1.2,0.9,1.2,0
		c0-0.7,0.5-1.1,1.2-0.9c0.6,0.1,1.4-0.7,1.6-1.7c0.3-1.5,0-1.8-1.8-1.3c-5,1.3-9.2-3.3-6.4-7c0.7-1,1.4-2.8,1.4-3.9
		c0-2.5,3-4.1,4.2-2.2c1,1.6,1,4.1,0,3.4c-0.4-0.2-1.5,0.1-2.4,0.8c-2.3,1.7-0.7,3.8,2.7,3.4c2.4-0.3,3-1,4.2-5.2
		c1.4-4.6,1.3-5.1-0.2-6.3c-1.2-0.8-2.3-0.9-3.6-0.3c-1,0.6-2.4,1-3.2,1c-1.5,0-5.7-3.3-5.7-4.4c0-0.4-0.7-1.4-1.5-2.2
		c-2.3-2.3-1.8-6.6,1-9.3c1.5-1.3,2.5-3.4,2.5-5c0-3.7,4.8-11,11.2-17.1c5.6-5.4,7.2-5.9,9.9-3.4c2.8,2.6,4.9,1.1,4.9-3.5
		c0-3,0.6-4.4,2.2-5.5c1.2-0.9,2.6-1.6,3-1.6c0.8,0,2.5,3.6,3.2,6.5c0.2,0.6,0.6,1.8,1.1,2.8c0.4,0.9,0.5,2.4,0.1,3.2
		c-0.3,0.9,0.8,2.4,2.9,4.1c1.9,1.4,3.5,3.4,3.5,4.3c0.1,3,2.4,4.9,5.3,4.4c1.5-0.3,2.7-0.1,2.7,0.5c0,1.5,5.6,6.5,7.5,6.8
		c0.9,0.1,2.5,1,3.6,2c1.5,1.3,2.9,1.5,7.7,1l5.9-0.7l2.4,3.6c1.6,2.4,3.6,3.9,6.1,4.5c2,0.6,5,2.1,6.5,3.4c2.7,2.2,6,3.1,21.8,5.3
		c2.2,0.3,4.7,1,5.5,1.7c3.9,2.9,6.1,3.6,8,2.6c1-0.5,3-1,4.4-1c2.2,0,3.1,1,6,7.3c1.9,4.1,3.7,9.8,4.1,13.2
		c0.4,3.3,1.6,8.3,2.6,11.1c1.7,4.5,1.8,6.1,0.9,11.7c-0.5,3.5-2.1,9-3.5,12.1c-1.4,3.1-2.5,6.1-2.5,6.7c0,0.6-0.6,2.5-1.4,4.2
		c-0.7,1.8-1.9,5.2-2.7,7.7c-0.7,2.5-1.7,5.1-2.2,5.8c-1.1,1.4-4.7,1.6-4.7,0.2c0-0.5,0.7-1,1.6-1c1.5,0,1.5-0.3-0.1-2.6
		c-1.4-2.2-1.5-3-0.5-4.9c1-1.9,1-3.2-0.1-6.7l-1.4-4.3l-4.6,0.3c-2.7,0.2-6.2-0.3-8.4-1.3c-2.7-1.1-5.3-1.4-8.4-1
		c-4.6,0.7-11.1,3.4-11.1,4.6c0,0.4-0.2,1.4-0.6,2.2c-0.3,0.8,0.6,2.1,2.1,3.1c2.4,1.6,3,1.6,7.2,0.2c4.1-1.4,5.2-1.4,10.5,0
		c7.5,1.9,13.1,5.3,12.1,7.4c-0.4,0.8-0.7,3.7-0.8,6.5c0,3.6-0.4,5-1.5,5.2c-1.9,0.4-3.1-0.5-5.3-3.9c-1-1.6-2.4-2.8-3.2-2.8
		c-0.7,0-2.3-1.4-3.5-3.1c-2-2.8-2.4-2.9-3.9-1.5c-2.5,2.3-2.9,2.1-4.7-2.5c-1.1-2.7-1.9-3.6-2.5-2.8c-0.5,0.9-1.1,1-2.1,0.2
		c-1-0.9-1.9-0.7-3.8,0.7c-2.5,2-6.1,2.6-7.4,1.3c-1.3-1.3-5.1-1.4-8.7-0.2c-4.4,1.4-5.9,5.2-5.9,14.7c0,5.1,0.3,6.3,2,7.2
		c1.1,0.6,1.8,1.5,1.5,2.1c-0.9,1.3,0.4,6.9,1.6,6.9c0.5,0,0.9-1.3,0.9-2.9c0-2.5,0.3-2.8,2.5-2.3c2.7,0.5,3.2,2.1,1.3,4
		c-0.8,0.8-0.8,1.2-0.1,1.2c0.6,0,1.6,1.3,2.3,2.9c0.7,1.7,2.2,3.2,3.6,3.5c2,0.5,2.4,1.1,1.8,2.8c-0.7,2.2,0.9,3.8,3.9,3.8
		c1,0,3.3,1.1,5.1,2.5c2,1.5,4.6,2.5,6.7,2.5c4,0,4.8-0.5,7.2-4.3c1-1.5,2.2-2.5,2.6-2.2c1,0.6,5.5-5.1,6.5-8.2
		c0.4-1.3,1.2-2.3,1.7-2.3s0.9-0.9,0.9-2c0-2.6,3.9-4.8,5.1-2.9c1.5,2.3,1,4.8-1.1,5.9c-1.1,0.6-1.8,1.5-1.5,2s-0.1,3.5-0.9,6.7
		c-2.6,10.5-3.6,15.3-3.6,17c0,1.9-7.6,17.9-8.9,18.7c-0.5,0.4-1.2,1.9-1.6,3.5c-0.3,1.6-1.7,3.9-3.1,5.1c-1.3,1.3-2.4,3-2.4,3.8
		c0,1-0.8,1.2-3,0.7c-2.5-0.6-3-0.3-3,1.2c0,1.2-1.2,2.5-3.2,3.4c-4.1,1.8-4.7,3.7-1.2,4.1c3.8,0.4,3.9,2,0.4,4
		c-2.5,1.4-3,1.5-3,0.3c0-0.8-0.7-1.5-1.5-1.5c-0.9,0-1.5,0.9-1.5,2.4c0,1.3,0.7,2.9,1.5,3.6c2,1.7,1.9,2.4-0.7,3.5
		c-1.6,0.7-2.2,1.8-2,3.3c0.2,1.9-0.2,2.2-1.8,1.7c-1.7-0.5-2-0.2-2,2.3c0,1.6,0.3,3.2,0.6,3.5c1.2,1.1,4.4-1.3,4.4-3.3
		c0-1.1,0.6-2,1.3-2c1.7,0,4.7-3.2,4.7-5c0-0.8,1-2.9,2.3-4.7c2.8-4.3,6.3-4.2,9.2,0.4c1.2,1.8,3.2,3.5,4.8,3.8
		c1.6,0.4,4,1.3,5.5,2.1s3.6,1.4,4.7,1.4s5.3,1.6,9.3,3.5s10,4.2,13.4,5c3.3,0.9,8.8,2.7,12.2,4c3.3,1.2,9.3,3.2,13.2,4.4
		c4,1.2,8.3,3,9.5,4c1.3,1,5,3,8.1,4.5c6.1,2.8,9.7,6.8,17.3,19.4c2.1,3.5,4.6,6.7,5.6,7.3c1,0.5,3.1,3.7,4.7,7.2
		c2.3,4.8,4.6,7.7,9.7,12.1c3.7,3.1,8.4,6.5,10.5,7.6c2,1,5,3.6,6.5,5.6c1.6,2.1,3.7,4.6,4.7,5.6s1.8,2.5,1.8,3.3
		c0,2.8,4,9.4,7,11.7c1.6,1.2,3.7,4.1,4.6,6.4c0.9,2.4,2.5,4.6,3.6,4.9c1,0.4,2.6,1.8,3.5,3.2c1.6,2.5,1.6,2.6-0.6,4.4
		c-1.9,1.6-3.3,1.8-7.1,1.3c-4.2-0.6-5-0.3-8.1,2.4c-1.9,1.6-5,3.7-6.9,4.7s-3.9,2.4-4.3,3.1c-0.4,0.8-1.4,1.4-2.1,1.4
		c-0.7,0-2.1,0.9-3.2,2.1c-1,1.2-3.6,2.8-5.7,3.6c-2.1,0.9-4.3,2.3-5,3.2c-0.6,0.9-4.1,3.6-7.7,6c-3.6,2.4-7.6,5.3-9,6.5
		c-1.4,1.3-5.9,4.7-10.1,7.6c-4.2,3-8.5,6.7-9.5,8.3c-2.6,3.9-7.5,6.1-12,5.2c-5.5-1-25.3-0.8-32,0.4c-3.2,0.5-9.9,1.3-14.9,1.6
		c-4.9,0.4-12.6,1-17,1.5s-12,1.2-17,1.5c-8.6,0.7-11.5,1-32,3.5c-4.9,0.6-11.8,1.9-15.2,3c-3.4,1-9.6,2.2-13.8,2.6
		c-5.7,0.5-7.8,1.1-8.2,2.3c-1.3,3.7-3.4,5-7,4.4l-3.6-0.6l0.6,4.9l0.7,4.9l-6,6c-3.3,3.3-6.8,6.8-7.8,7.8c-6.1,6.3-7.8,7.7-8.9,7.7
		c-0.7,0-1.9,1.3-2.7,2.9c-0.8,1.5-2.5,3.5-3.8,4.4c-1.3,0.9-5,4.1-8.3,7.3c-3.3,3.1-7,6.3-8.2,7.1c-1.3,0.9-2.3,2-2.3,2.7
		c0,1.5-6.6,6.7-11.2,8.8c-4.3,1.9-4.9,4.3-1.8,7.6c2.6,2.7,3.1,2.7,6.2,0c6-5.4,8-6.5,19.7-11.4c2.4-1,6.2-3.7,8.3-6
		c2.2-2.3,5.2-4.5,6.6-4.9c1.5-0.4,4.3-1.8,6.2-3.3s4-3,4.5-3.4c0.6-0.4,2.6-2,4.5-3.6s5.1-3.7,7-4.7c1.9-0.9,4.6-2.8,6-4
		c4.8-4.4,9.2-4.1,15,0.8c4.5,3.9,6,10.9,3,14.9l-2,2.7l3,4.8c4.6,7.1,4.2,11.6-1.4,17.3c-2.4,2.5-4.9,5-5.5,5.5
		c-0.6,0.6-1.9,2-2.9,3.3c-0.9,1.2-3.4,2.8-5.4,3.5c-2.1,0.7-5.6,3.1-8,5.3c-5,4.6-12.6,9.9-26.6,18.5c-9.9,6-14.2,10.3-14.2,14.3
		c0,1.3-1,1.6-5.2,1.6C410.9,606.9,408.5,606.4,407.7,605.5z M388.5,582.8c2.7-0.9,4.1-2,4.5-3.6c0.8-3.4,0-4-5.7-3.8
		c-5.1,0.1-5.2,0.2-5.9,3.6C380.3,584,381.9,584.8,388.5,582.8z M388.2,570.5c-1.9-1.7-3.3-2.2-4.7-1.7c-4.3,1.6-1.4,3.8,5.5,4.1
		C390.8,572.9,390.7,572.7,388.2,570.5z M364.8,560.3c3.3-0.7,5.6-4.1,3.7-5.3c-1.8-1.1-0.4-4,1.9-4c1,0,2.6-1.1,3.5-2.5
		c1.8-2.8,3.6-3.3,3.6-1.1c0,2,1.6,2.9,4,2.1c2.6-0.8,2.6-2.2,0-3c-4.7-1.5-6.8-6.8-3-7.8c1.1-0.3,2.3-0.1,2.6,0.4
		c0.8,1.3,3.4-0.9,3.4-2.8c0-1.2-0.3-1.3-1.4-0.4c-1.5,1.3-5,0-7.1-2.7c-1.6-2-7.3,0.4-9.1,3.9c-1.6,3.1-2.4,3.5-4,1.9
		c-0.7-0.7-2.4,0.6-5.2,4.1c-3.4,4.1-4.2,6-4.2,9.1s-0.4,4.1-2,4.5c-1.1,0.3-2,1.2-2,2c0,1.3,0.3,1.3,1.5,0.3c1.3-1.1,2-1,4.3,0.8
		c1.6,1.2,3.5,1.9,4.7,1.6C361.1,561.2,363.3,560.7,364.8,560.3z M378.1,518.5c1.5-1.4,3.4-2.5,4.3-2.5c1,0,3.2-1.6,5.1-3.5
		c1.9-1.9,3.9-3.5,4.5-3.5s2.2-1.1,3.5-2.5s2.9-2.5,3.6-2.5c0.7,0,1.9-0.8,2.6-1.9c0.7-1,3.3-2.8,5.8-4.1c2.5-1.3,5.1-3.1,5.8-4.2
		c1.7-2.3,8.2-6.5,11.5-7.3c2.8-0.7,5.3-5,3.5-6.1c-0.6-0.4-4.3-0.6-8.2-0.4c-3.9,0.1-8.4,0.2-10.1,0.1c-1.6,0-5.9,0.2-9.5,0.5
		c-5.9,0.6-6.7,0.9-10.2,4.8c-2.1,2.2-4.3,5.8-4.9,7.9c-0.5,2-2.1,4.4-3.4,5.3c-1.4,0.9-2.5,2.2-2.5,2.9c0,0.7-0.7,1.8-1.5,2.5
		c-2.1,1.7-6.5,11.1-6.5,13.8c0,1.8,1.1,2.9,3.2,3.1C375.1,521,376.6,519.9,378.1,518.5z M421,509c0.3-0.5,0.2-1-0.4-1
		c-0.5,0-1.3,0.5-1.6,1c-0.3,0.6-0.2,1,0.4,1C419.9,510,420.7,509.6,421,509z M429.5,500c0.9-1.7,0.8-2-0.8-2
		c-2.2,0-4.6,2.3-3.5,3.3C426.4,502.6,428.4,502,429.5,500z M430.9,490.9c-0.9-1.6-3.2-1-3.9,1.1c-1.1,3.3,0.6,4.6,2.7,2.1
		C430.7,492.8,431.2,491.4,430.9,490.9z M437.5,485c0-0.5-0.9-1-2.1-1c-1.1,0-1.7,0.5-1.4,1c0.3,0.6,1.3,1,2.1,1
		C436.9,486,437.5,485.6,437.5,485z M443.7,465.8c-1.3-1.3-2.6,0.8-1.7,3c0.6,1.6,0.7,1.6,1.7-0.1
		C444.4,467.4,444.4,466.5,443.7,465.8z M361.5,461.2c3.7-3.9,3.7-3.9,1.8-6.2c-1.6-2-2.2-2.1-4.4-1.1l-2.6,1.1l2.4,2l2.3,1.9
		l-2.5,0.1c-3.7,0.1-5.3,1.4-4.5,3.9C355,466,357.3,465.5,361.5,461.2z M417.5,454.6c0-0.3-0.4-0.8-1-1.1c-0.5-0.3-1-0.1-1,0.4
		c0,0.6,0.5,1.1,1,1.1C417.1,455,417.5,454.8,417.5,454.6z M514.6,449.4c1.4-1.3,3.3-2.4,4.2-2.4c1,0,2.2-1.1,2.6-2.4
		c0.5-1.3,1.6-2.6,2.4-2.9c0.9-0.3,2.1-1.8,2.9-3.4c1-2.2,2.2-2.9,5.2-3.3c4-0.5,5.1-1.6,6-6c1.1-5.1,2.2-5.6,5-2.4
		c1.4,1.6,2.6,3.4,2.6,4c0,0.5,0.6,1.8,1.3,2.8c1.2,1.7,1.5,1.7,2.9,0.2c1.4-1.3,1.5-2.3,0.6-5.3c-0.6-2.1-1.6-4.2-2.4-4.6
		c-1.6-0.9-1.9-4.7-0.4-4.7c0.6,0,1.5,1.1,2.1,2.4c2.1,4.6,7.9,4.2,9.5-0.6c0.5-1.6,1.2-1.9,3.7-1.4c2.3,0.5,3.6,0.1,5.4-1.6
		c2.7-2.6,9.1-2.7,12.8-0.2c1.6,1,3.5,1.3,5.8,0.9c2.9-0.6,3.7-0.3,5.5,2c2.9,3.7,6.4,3.1,7.7-1.2c1.1-3.8,1.6-4,4-1.3
		c2.3,2.5,3.7,2.5,6,0s1.4-4.6-2.9-6.4c-2.8-1.2-3.6-2.2-4.2-5c-1.4-7.5,2-15.1,4.8-10.7c1.7,2.8,3.9,2.6,7.3-0.5
		c2.4-2.2,2.6-2.8,1.4-3.9c-0.8-0.8-4.3-1.9-7.9-2.4c-3.6-0.6-9-1.8-12-2.6c-8.1-2.4-15.2-3.4-27-4.1c-17.3-0.9-20.3-1.2-23.8-1.9
		c-4-0.9-8,0.9-9.3,4.2c-0.7,1.9-3.2,4-10.8,8.8c-0.8,0.6-2.4,2-3.4,3.3c-1,1.2-3.7,3.2-5.8,4.3c-2.2,1.1-4.9,3.1-6.1,4.4
		c-1.2,1.4-2.8,2.5-3.6,2.5c-0.8,0-3,1.8-4.9,3.9c-1.9,2.3-4.6,4.2-6.4,4.6c-1.8,0.4-5.2,2.9-8.4,6.1c-2.9,3-5.7,5.4-6.3,5.4
		c-0.6,0-2.5,1.8-4.2,4c-1.7,2.2-3.8,4-4.6,4c-1.8,0-6.4,4.8-6.4,6.6c0,2.1,3.4,1.7,5.5-0.6c1-1.1,2.4-2,3.2-2
		c0.7,0,1.3-0.7,1.3-1.5c0-0.8,0.9-1.9,2-2.5s2-0.9,2-0.6c0,0.3,1.4,0,3.1-0.6c3.8-1.3,4.9-0.1,4.9,5.4c0,2.1,0.7,4.4,1.7,5.4
		s2.3,2.7,2.8,3.8C494.1,453.6,510.1,453.6,514.6,449.4z M360.5,449c0-0.5-0.4-1-1-1c-0.5,0-1,0.5-1,1c0,0.6,0.5,1,1,1
		C360.1,450,360.5,449.6,360.5,449z M446.5,446.9c0-1.1-0.4-1.7-1-1.4c-0.5,0.3-1,1.3-1,2.1s0.5,1.4,1,1.4
		C446.1,449,446.5,448.1,446.5,446.9z M360.2,444.5c0.1-0.5-0.2-1.7-0.7-2.5c-0.8-1.3-1.1-1.3-2.6,0.2c-0.9,0.9-1.3,2.1-0.9,2.8
		C356.8,446.3,359.7,446,360.2,444.5z M219.5,435c-0.6-1.1-1.2-2-1.4-2c-0.2,0-0.6,0.9-0.9,2c-0.4,1.5,0,2,1.4,2
		C220.3,437,220.4,436.7,219.5,435z M430.9,431.3c-0.4-1.6-1.1-2.9-1.5-3.1c-0.4-0.2-0.6-0.9-0.3-1.6c0.3-0.7-0.4-2.1-1.6-3.1
		c-1.1-1-2-2.2-2-2.8c0-2.2-16.4-17.7-18.7-17.7c-1.3,0-13.7-8.4-22.3-15c-4.7-3.7-10.2-7.4-12.2-8.4c-2.1-0.9-4.2-2.6-4.8-3.6
		c-0.6-1.1-1.8-2-2.7-2c-0.9,0-3.7-1.2-6.1-2.6c-7.1-4.2-10.7-4.7-14-2c-3,2.5-10.3,5.2-17,6.2c-2.6,0.4-4.8,1.4-5.5,2.5
		c-0.7,1.1-1.8,1.9-2.6,1.9c-1.6,0-8.6,2-21.1,6c-7.1,2.3-24.9,5.3-37.5,6.3c-2.6,0.2-3,0.6-2.7,2.7c0.4,4,2.1,4.8,4.3,2
		c1.8-2.3,2-2.4,3.3-0.8c1.2,1.7,7.4,4.8,9.4,4.8c0.5,0,1.5-1.1,2.2-2.5c1.7-3.2,2.7-3.1,6.2,0.2l2.8,2.7l2.2-2.2
		c1.3-1.1,5.5-3.7,9.3-5.7c8.2-4.2,11.6-4.2,16.5,0.2c1.8,1.5,4.1,2.7,5.1,2.5c1.3-0.2,1.9,0.3,1.9,1.6c0,1.9,3.5,3.7,5.2,2.6
		c1.4-0.9-2.1-6.4-4.1-6.4c-1,0-2.1-0.7-2.5-1.5c-0.9-2.5,0.4-4.5,3-4.5c1.3,0,4.1-1.6,6.3-3.5c2.1-1.9,4.9-3.5,6.2-3.5
		c1.3,0,4.3-1,6.7-2.2c3.9-2.1,4.4-2.1,5.5-0.7c0.7,0.9,3,2.5,5.2,3.7c2.2,1.1,6.3,4.2,9,6.9c2.8,2.6,6.2,5.4,7.8,6
		c1.6,0.8,2.7,2,2.7,3.2c0,2.3,1.9,3.1,7.7,3.1c4.1,0,4.6,0.3,5.6,3c1.2,3,4.1,4.1,5,1.8c0.3-0.9,1.5-0.3,3.6,1.7
		c2.2,2,4,2.9,5.7,2.7c1.9-0.3,2.4,0.1,2.4,1.8c0,1.1,0.6,2.3,1.3,2.6c0.8,0.3,1.1,1.8,0.9,4.5c-0.4,3.5,0,4.4,3.3,7.4
		c3,2.9,4.4,3.5,7.9,3.5c2.7,0,4.8-0.6,5.6-1.6c1.9-2.2,6.5-1.4,6.5,1.1c0.1,2.4,1.3,4.5,2.6,4.5C431.1,434,431.2,432.8,430.9,431.3
		z M218.5,428.9c0-0.5-0.7-0.9-1.5-0.9c-1.5,0-2,1.2-0.9,2.3C216.9,431.1,218.5,430.2,218.5,428.9z M217.5,420c0-2-0.5-3-1.5-3
		c-1.6,0-1.9,1.7-0.9,4.4C216.1,424,217.5,423.2,217.5,420z M459.2,418.3c-0.4-0.3-0.7,0-0.7,0.7c0,0.7,0.3,1,0.7,0.7
		C459.5,419.3,459.5,418.7,459.2,418.3z M192.8,409.8c0.3-2.2-0.1-4-1.4-5.6c-1.7-2.3-1.8-2.3-2.8-0.3c-1.5,2.7-1.4,4.1,0.4,4.1
		c0.9,0,1.5,0.9,1.5,2.5C190.5,414.1,192.2,413.6,192.8,409.8z M213.2,408.3c-0.7-4-3.7-7.3-6.8-7.3c-2.3,0-1.5,2.6,1.2,4.1
		c1.1,0.5,1.9,1.8,1.9,2.7c0,1.9,1.8,4.2,3.3,4.2C213.3,412,213.5,410.3,213.2,408.3z M471,408.5c2.8-2.7,3.5-6.8,1-5.9
		c-0.8,0.4-1.5,1.3-1.5,2c0,0.8-1.1,1.9-2.5,2.4c-2.5,0.9-3.1,2.1-1.8,3.3C467.3,411.5,468.5,411.1,471,408.5z M253,406
		c0.3-0.5,0.1-1-0.4-1c-0.6,0-1.1,0.5-1.1,1c0,0.6,0.2,1,0.4,1C252.2,407,252.7,406.6,253,406z M188.5,400.5c0-0.3-0.9-1.4-1.9-2.4
		c-1.6-1.6-2.2-1.7-3-0.7c-0.7,0.9-0.7,1.6,0.1,2.4C184.9,401,188.5,401.5,188.5,400.5z M255.4,398.6c1.7-2.1-0.3-5.6-3.2-5.6
		c-1.2,0-3.3-0.7-4.5-1.6c-1.2-0.8-2.3-1.3-2.3-1c-0.6,2.6-0.3,7.3,0.4,8.4C247.1,400.5,254,400.3,255.4,398.6z M181.5,391.5
		c-0.7-0.8-1.6-1.5-2.1-1.5s-0.9,0.7-0.9,1.5c0,0.9,0.9,1.5,2.1,1.5C182.4,393,182.5,392.8,181.5,391.5z M621.8,392.3
		c-0.7-0.2-1.9-0.2-2.5,0c-0.7,0.3-0.2,0.5,1.2,0.5S622.4,392.6,621.8,392.3z M482.5,390c0-0.5-0.4-1-1-1c-0.5,0-1,0.5-1,1
		c0,0.6,0.5,1,1,1C482.1,391,482.5,390.6,482.5,390z M474.3,385.5c0.2-1.3,2-2.8,5.2-4.2c2.8-1.2,5-2.9,5-3.7s0.9-1.8,2-2.1
		c2.4-0.8,6-7.3,6-11c0-1.4,0.5-2.5,1-2.5c0.6,0,1-1.2,1-2.7c-0.1-2.6-0.1-2.7-1.2-0.8c-0.6,1.1-2.9,3.7-5,5.7
		c-2.1,2.1-3.8,4.4-3.8,5.2c0,1.4-3.2,5.4-10.2,13c-4.2,4.4-4.7,5.9-2,5.4C473.2,387.6,474.1,386.6,474.3,385.5z M174.5,381
		c0-0.5-0.6-1-1.4-1c-0.8,0-1.8,0.5-2.1,1c-0.3,0.6,0.3,1,1.4,1C173.6,382,174.5,381.6,174.5,381z M460.7,375.5
		c1.4-3.1,0.7-3.9-2.6-3.1c-2.2,0.5-2.3,0.8-1.3,3.1C458.3,378.6,459.2,378.6,460.7,375.5z M443.2,363.3c-0.4-0.3-1-0.3-1.4,0
		c-0.3,0.4,0,0.7,0.7,0.7S443.5,363.7,443.2,363.3z M446.9,359.5c-0.4-0.8-1-1.2-1.5-0.9c-1.1,0.6-0.2,2.4,1.1,2.4
		C447,361,447.2,360.3,446.9,359.5z M398.5,348.9c0-0.5-0.7-0.9-1.5-0.9c-1.5,0-2,1.2-0.9,2.3C396.9,351.1,398.5,350.2,398.5,348.9z
		 M458.5,314.9c0-0.5-0.7-0.9-1.5-0.9c-1.5,0-2,1.2-0.9,2.3C456.9,317.1,458.5,316.2,458.5,314.9z M479,306.4
		c-1.8-1.9-2.5-1.8-2.5,0.4c0,2.6,1.1,3.4,2.6,2.1C480.2,308,480.2,307.6,479,306.4z M496.9,292.2c0.5-2.8,0.3-3.3-1.1-3
		c-0.9,0.2-1.6,0.6-1.5,1.1c0.1,0.4,0.2,2.1,0.2,3.9C494.5,298.1,496,296.8,496.9,292.2z M441.6,288.3c1.3-3.6,0.5-5.3-2.6-5.3
		s-4.2,2.3-2.7,5.6C437.8,291.8,440.3,291.7,441.6,288.3z M460.5,286.5c0-0.8-0.9-1.5-2-1.5c-2,0-2.6,1.1-1.3,2.3
		C458.4,288.6,460.5,288,460.5,286.5z M443.2,269.4c-0.3-0.3-1.2-0.4-1.9-0.1c-0.8,0.3-0.5,0.6,0.6,0.6
		C443,270,443.6,269.7,443.2,269.4z M344,263c0-3.6-2.9-3.3-3.3,0.3c-0.3,2.3,0,2.8,1.5,2.5C343.4,265.6,344,264.6,344,263z
		 M507.5,259.8c0-0.4-0.9-0.8-2-0.8c-2.6,0-2.7-3.3-0.2-5.7c3.4-3.3,6.1-8.8,6.7-13.8l0.7-5l-3.9-1.2c-3.3-1-4.1-0.9-5.8,0.6
		c-2,1.9-7.9,3.2-10.2,2.4c-0.7-0.3-1.3-1.6-1.3-3c0-1.8-1.3-3.9-4.1-6.4c-3.4-3.2-4-4.3-3.5-6.4c0.6-2.2,0.3-2.5-1.9-2.5
		c-1.8,0-2.8,0.7-3.5,2.5c-0.5,1.4-1.4,2.5-1.9,2.5s-1.7,0.7-2.5,1.5c-1.4,1.4-1.6,1.4-2-0.7c-1.3-6.2-1.3-9.7-0.3-10.7
		c0.9-0.9,0.8-1.4-0.3-2.1c-1.9-1.2-2.4-0.7-4.9,4c-1.7,3.2-2,5.3-1.7,11.2c0.4,7.6-0.4,9.8-3.5,9.8c-2.2,0-2.4,1.1-0.7,2.8
		c0.8,0.8,0.9,1.8,0.1,3.4c-1,2.1-1.6,2.3-9.1,2.2l-8-0.2l-0.6,3.1c-0.3,1.7-0.2,3.5,0.3,4c1.6,1.6,4.5,0.3,5.1-2.3
		c0.6-2.4,4-4.2,4-2.2c0,0.5,1.9,1,4.3,0.9c2.3,0,6.3,0.3,8.8,0.7c3.4,0.6,5,0.4,6-0.6c0.8-0.8,2.5-1.4,3.8-1.5
		c3-0.2,3.4-0.7,3.4-3.8c0-2.5,2.2-3.5,2.9-1.4c0.3,0.9,1,0.9,2.6,0c1.7-0.9,2.8-0.8,5.2,0.4c1.6,0.9,3,2,3,2.5s1.8,3.3,4,6.2
		c2.2,2.9,4.3,6.4,4.6,7.8c1.1,5.1,1.2,5.1,3.9,3.8C506.4,261.2,507.5,260.3,507.5,259.8z M539.9,256.5c0.3-0.8,0.1-1.5-0.4-1.5
		c-0.6,0-1,0.7-1,1.5c0,0.8,0.2,1.5,0.4,1.5C539.1,258,539.5,257.3,539.9,256.5z M350.2,255.3c-0.4-0.3-0.7,0-0.7,0.7
		c0,0.7,0.3,1,0.7,0.7C350.5,256.3,350.5,255.7,350.2,255.3z M439.5,252c0-1.1-0.4-2-1-2c-0.5,0-1,0.9-1,2c0,1.1,0.5,2,1,2
		C439.1,254,439.5,253.1,439.5,252z M489.5,252.2c0-1,0.5-2.3,1.2-3c0.9-0.9,0.9-1.5-0.1-2.4c-1-1.1-1.6-0.8-3.1,1.2
		c-1.2,1.6-1.5,2.9-0.9,3.6c0.5,0.6,0.6,1.4,0.2,1.7c-0.3,0.4,0.1,0.7,1,0.7C488.8,254,489.5,253.2,489.5,252.2z M354,249.9
		c0.4-0.6,0.5-1.3,0.2-1.6c-0.8-0.7-4.7,0.7-4.7,1.8C349.5,251.4,353.2,251.2,354,249.9z M341.5,244.5c0.7-1.3,1.6-2.2,2-2
		c0.4,0.3,1.3-0.1,1.9-0.9c0.9-1.1,0.8-1.5-0.6-2c-2-0.8-6.3,3.4-6.3,6C338.5,247.8,340,247.3,341.5,244.5z M515,227.1
		c-1-4.7-2.5-3.7-2.5,1.6c0,4.3,0.1,4.6,1.6,3.1C515.3,230.7,515.5,229.3,515,227.1z M344.5,221.2c0-2.6-2.5-0.5-2.8,2.4
		c-0.2,2.8-0.2,2.8,1.3,1C343.8,223.5,344.5,222,344.5,221.2z M515.1,210.4c-0.4-1.3-1.3-2.4-2.1-2.4c-1.8,0-2,3.3-0.4,6.2
		c1.1,2,1.2,2,2.1,0.4C515.2,213.6,515.4,211.8,515.1,210.4z M484.2,211.3c1.1-1.6,2.8-5.6,3.9-9c1.4-4.6,2.4-6.3,3.6-6.3
		c2,0,2.2-0.8,0.9-2.9c-0.7-1.1-1-1.1-1.7,0.1c-0.5,0.8-2.4,1.4-4.4,1.4c-3.5-0.1-3.5-0.1-3.5,4.4c0,4.3-0.1,4.5-3.1,4.8
		c-3.6,0.3-6.9,3.4-6.1,5.5c0.5,1.2,6.2,4.6,7.9,4.7C482.1,214,483.2,212.8,484.2,211.3z M487,184c-0.4-1.1-1.3-2-2.1-2
		c-1.7,0-1.8,1.1-0.2,4.5c1,2.2,1.3,2.3,2,1C487.2,186.7,487.3,185.1,487,184z M475.5,185c0-0.6,1-1.5,2.3-2.1
		c1.3-0.6,2.7-2,3.2-3.2c1.4-2.9,6-4.3,9-2.7c2.7,1.5,6.3,0.8,9.4-1.7c1.9-1.6,2.1-2.2,1.2-4.5c-0.6-1.7-0.7-2.9-0.1-3.3
		c1.9-1.2,1-3.5-1.4-3.5c-3,0-5-2.3-4.1-4.9c0.6-2.1-0.9-3.8-2-2.1s-4.5,1.1-4.5-0.8c0-1.2-1.3-2.3-3.6-3.1c-4.2-1.5-4-3.5,0.5-3.9
		c2.6-0.3,3.4,0.1,3.8,1.7c0.3,1.2,0.9,2.1,1.4,2.1c1.5,0,2.1-2.1,0.8-3.6c-1-1.2-0.9-1.7,0.6-2.8c3.1-2.2,1-5.4-4.7-7.1
		c-2.8-0.8-5.9-2.2-6.9-3.1c-1.4-1.3-2.9-1.5-6.5-1c-2.9,0.4-5.5,0.1-7.2-0.7c-4.5-2.3-10.9-2.1-14.3,0.4c-1.6,1.1-3.8,1.9-4.9,1.6
		c-1.1-0.3-3.2,0.6-5.2,2.2c-3.9,3.2-11,5.5-13.9,4.6c-1.5-0.5-2.2-0.2-2.6,1.4c-0.7,2.8-2.9,2.6-4.9-0.5l-1.7-2.5l-2.9,3.1
		c-1.5,1.7-2.8,3.2-2.8,3.4c0,0.2,1.8,0.8,4.1,1.5c3.6,1.1,4.3,1,6-0.5c1-0.9,2.5-1.4,3.4-1c1.4,0.5,1.5,1.8,1.1,8
		c-0.5,6.4-0.3,7.7,1.5,10c1.1,1.5,3.6,3.3,5.5,4.1s3.4,2.1,3.4,2.9c0,0.8,0.7,3,1.6,4.9c2.1,4.3,5.5,5.6,17.3,6.1
		c5.1,0.3,9.5,0.7,9.9,1C468.3,186.4,475.5,186,475.5,185z M422.2,157c1.2-2.3,1.1-2.5-1.3-2.8c-2.8-0.4-5.5,2.3-4.7,4.6
		C417,160.9,420.8,159.8,422.2,157z M565.9,136.5c-2.2-1.7-3.4-1.9-3.4-0.6c0,0.5,0.8,1.2,1.8,1.4
		C567.5,138.2,567.9,138,565.9,136.5z M558.5,134.8c0-1.6-5.5-4.8-8-4.8c-1,0-2.6,0.3-3.5,0.6c-1.3,0.5-0.8,1.2,2.2,2.9
		C553.4,136.1,558.5,136.7,558.5,134.8z M443.2,122.3c-0.4-0.3-1-0.3-1.4,0c-0.3,0.4,0,0.7,0.7,0.7S443.5,122.7,443.2,122.3z
		 M541.9,119.1c0.7-1.1-1.8-2.1-5.5-2.1c-1.9,0-2.9,0.5-2.9,1.5c0,1.1,1.1,1.5,3.9,1.5C539.6,120,541.6,119.6,541.9,119.1z"/>
	<path class="st1" d="M366.5,547c0-0.7,0.3-1,0.7-0.7c0.3,0.4,0.3,1,0,1.4C366.8,548,366.5,547.7,366.5,547z"/>
	<path class="st1" d="M515.1,444.4c-0.8-2.2-0.8-2.4,0.8-2.4c1.5,0,2.8,2.4,1.9,3.4C516.7,446.4,515.7,446.1,515.1,444.4z"/>
	<path class="st1" d="M499.5,442c0-1.1,0.5-2,1-2c0.6,0,1,0.9,1,2s-0.4,2-1,2C500,444,499.5,443.1,499.5,442z"/>
	<path class="st1" d="M499.2,436.8c-0.7-2.5-0.3-3.3,1.2-2.3c1.3,0.8,1.5,4.5,0.2,4.5C500.1,439,499.5,438,499.2,436.8z"/>
	<path class="st1" d="M515.5,421.1c0-1.2,0.5-2.1,1-2.1c0.6,0,1,0.6,1,1.4c0,0.8-0.4,1.8-1,2.1C516,422.8,515.5,422.2,515.5,421.1z"
		/>
	<path class="st1" d="M507.6,420.4c0-1.1,0.3-1.4,0.6-0.6c0.3,0.7,0.2,1.6-0.1,1.9C507.8,422.1,507.5,421.5,507.6,420.4z"/>
	<path class="st1" d="M556.4,413.8c-0.2-2.7,0.3-6.3,1-7.1c1.4-1.4,3.3,2.1,2.5,4.5c-0.4,1.3-0.7,2.6-0.6,3.1
		c0.1,0.4-0.5,0.7-1.3,0.7S556.5,414.4,556.4,413.8z"/>
	<path class="st1" d="M588,413c-2-2.2-1.5-3.6,1-2.7c0.8,0.4,1.5,1.6,1.5,2.7C590.5,415.5,590.3,415.5,588,413z"/>
	<path class="st1" d="M510.9,412.9c-0.7-1.2,2.2-4.6,3.2-3.7c0.8,0.9-0.5,4.8-1.6,4.8C512,414,511.3,413.5,510.9,412.9z"/>
	<path class="st1" d="M519.5,411.6c0-0.8-0.8-2-1.7-2.6c-1.5-0.9-1.5-1.2-0.4-1.7c0.8-0.3,2.4-1.6,3.6-2.9c2.1-2.2,4.5-3.2,4.5-1.8
		c0,0.3-0.5,1.5-1.2,2.7c-0.6,1.2-1.2,3.3-1.2,4.7C523,412.7,519.5,414.3,519.5,411.6z"/>
	<path class="st1" d="M582.5,406c0-0.7,0.3-1,0.7-0.7c0.3,0.4,0.3,1,0,1.4C582.8,407,582.5,406.7,582.5,406z"/>
	<path class="st1" d="M563.1,401.3c0.1-1.6,1-5,2-7.6c1.5-4.2,2-4.8,3.8-4.1c1.2,0.4,4.1,0.8,6.6,0.9c3.3,0.2,4.6,0.7,4.8,1.9
		c0.3,1.1-0.6,1.8-2.7,2.2c-2.2,0.5-3.1,1.2-3.1,2.6c0,1.1-0.5,1.8-1.2,1.5c-0.7-0.2-1.2-1.4-1.1-2.6c0.5-3.7-2.4-2.3-5.8,2.9
		c-1.8,2.8-3.3,5-3.4,5S562.9,402.8,563.1,401.3z"/>
	<path class="st1" d="M594,403c-0.8-1.3,0.4-3.2,1.6-2.5c1.2,0.8,1.2,3.5,0,3.5C595,404,594.3,403.6,594,403z"/>
	<path class="st1" d="M527.1,402.2c-0.3-0.4,2.5-3.7,6.1-7.2c6.2-6.1,6.7-6.4,11.4-6.4c2.7,0,5.2,0.4,5.6,0.8
		c0.4,0.4-0.1,2.4-1.2,4.4c-1.5,2.8-2.8,3.8-5.5,4.3c-1.9,0.4-5.4,1.6-7.7,2.8C531.5,403.1,528,403.6,527.1,402.2z"/>
	<path class="st1" d="M460.1,178.9c-1-0.6-3.3-0.9-5.1-0.6c-3.6,0.6-6.6-1.7-7.9-5.9c-0.9-2.9,1.6-4.9,4.3-3.5
		c2.4,1.3,9.7,0.5,12.8-1.5c3.1-2,4.9-1.7,6.7,0.8c2.5,3.5,2,6.4-1.7,9.2C465.6,180.2,463.1,180.6,460.1,178.9z"/>
	<path class="st1" d="M449.4,153.1l-2.3-1.9l2.9-3.5c1.7-2,3.7-3.6,4.6-3.6c0.8-0.1,2-0.6,2.6-1.2c0.7-0.7,1.9-0.8,3-0.4
		c2.5,1.2,2.9,1.2,6.3,1.4c3.4,0.1,5.2,2.8,2.9,4.2c-0.8,0.5-4.1,1.4-7.3,2.1c-4.4,0.8-5.5,1.3-4,1.9c1.7,0.6,1.6,0.8-0.9,1.8
		C453.3,155.4,452.1,155.3,449.4,153.1z"/>
	<path class="st1" d="M213.5,602.1c-1-0.7-1.2-1.3-0.4-2.1c1.2-1.2,8.4,0,8.7,1.5C222.1,602.8,215.4,603.3,213.5,602.1z"/>
	<path class="st1" d="M330,597c-1-1.1-2.3-2-2.9-1.9c-5.3,0.6-6.1-1.5-1.3-3.4c4.4-1.9,9.4-1.5,11.1,0.9c1.7,2.3,1.4,3-2.3,4.9
		C332,598.8,331.6,598.8,330,597z"/>
	<path class="st1" d="M257.7,595.8c0.3-0.7,1.7-1.4,3.2-1.6c2-0.3,2.7,0,2.4,1c-0.3,0.7-1.7,1.4-3.2,1.6
		C258.1,597.1,257.4,596.8,257.7,595.8z"/>
	<path class="st1" d="M279.4,580.3c-0.5-4.8-0.3-6.3,0.8-6.3c0.7,0,1.3,0.9,1.3,1.9c0,1.1,0.3,2.6,0.6,3.5c0.4,1.1,0.1,1.6-1,1.6
		C280.2,581,279.5,580.7,279.4,580.3z"/>
	<path class="st1" d="M278.7,566.3c0.4-2.2,4.3-2.5,4.3-0.3c0,0.8-1.1,1.6-2.3,1.8C278.8,568.1,278.4,567.8,278.7,566.3z"/>
	<path class="st1" d="M307.7,533.9c0.2-0.7,1-1.5,1.7-1.7c0.8-0.3,1.2,0.1,0.9,0.9c-0.2,0.7-1,1.5-1.7,1.7
		C307.8,535.1,307.4,534.7,307.7,533.9z"/>
	<path class="st1" d="M422.5,376c2-1.3,4-1.3,4,0c0,0.6-1.2,1-2.7,1C421.6,377,421.3,376.8,422.5,376z"/>
	<path class="st1" d="M478.2,354.5c-0.3-2-0.1-2.5,1.2-2.3c0.9,0.2,1.7,1.3,1.9,2.6C481.8,357.9,478.9,357.7,478.2,354.5z"/>
	<path class="st1" d="M464.8,354.3c0.4-0.3,1-0.3,1.4,0c0.3,0.4,0,0.7-0.7,0.7S464.5,354.7,464.8,354.3z"/>
	<path class="st1" d="M373.8,337.3c0.4-0.3,1-0.3,1.4,0c0.3,0.4,0,0.7-0.7,0.7S373.5,337.7,373.8,337.3z"/>
	<path class="st1" d="M378.5,323c0-0.5,0.5-1,1-1c0.6,0,1,0.5,1,1c0,0.6-0.4,1-1,1C379,324,378.5,323.6,378.5,323z"/>
	<path class="st1" d="M372.2,318.3c-1.2-1.1-0.8-2.3,0.8-2.3c0.8,0,1.5,0.7,1.5,1.5C374.5,319.1,373.3,319.5,372.2,318.3z"/>
	<path class="st1" d="M443.5,316.4c0-1.7,2.2-1.4,2.8,0.4c0.2,0.7-0.3,1.2-1.2,1.2S443.5,317.3,443.5,316.4z"/>
	<path class="st1" d="M361.5,311.6c-1.2-3.3-1.3-8.3-0.1-9c0.8-0.5,2.3,10.4,1.5,11.3C362.7,314.1,362.1,313.1,361.5,311.6z"/>
	<path class="st1" d="M504.5,300c-1.1-2-0.8-2.4,2.2-2.1c0.9,0.1,1.9-0.3,2.3-0.9c0.3-0.5,1.3-1,2-1c3,0-1.2,5.9-4.2,6
		C506.1,302,505.1,301.1,504.5,300z"/>
	<path class="st1" d="M484.5,296c0-0.5,0.5-1,1.1-1c0.5,0,0.7,0.5,0.4,1c-0.3,0.6-0.8,1-1.1,1C484.7,297,484.5,296.6,484.5,296z"/>
	<path class="st1" d="M487.8,295.3c0.4-0.3,1-0.3,1.4,0c0.3,0.4,0,0.7-0.7,0.7S487.5,295.7,487.8,295.3z"/>
	<path class="st1" d="M509.5,294.2c0-1.2,1.9-2.6,2.6-1.9c0.2,0.2-0.2,1-1.1,1.7C510.1,294.8,509.5,294.8,509.5,294.2z"/>
	<path class="st1" d="M504.8,287.3c0.4-0.3,1-0.3,1.4,0c0.3,0.4,0,0.7-0.7,0.7S504.5,287.7,504.8,287.3z"/>
	<path class="st1" d="M405.7,280.8c-0.8-0.8-0.8-1.7,0-3.1c1-2,1.1-2,2.4-0.2C410.7,281.1,408.7,283.8,405.7,280.8z"/>
	<path class="st1" d="M413.5,281c0-0.7,0.3-1,0.7-0.7c0.3,0.4,0.3,1,0,1.4C413.8,282,413.5,281.7,413.5,281z"/>
	<path class="st1" d="M396.5,270c-1.3-0.8-1.3-1.1,0.1-2.5s1.7-1.4,2.2-0.2C399.6,269.4,398.2,271.1,396.5,270z"/>
	<path class="st1" d="M472.9,266.5c-0.4-0.8-0.3-2.2,0-3.1c0.6-1.5,0.8-1.5,2.6,0.1c2,1.8,1.7,4.5-0.6,4.5
		C474.1,268,473.2,267.3,472.9,266.5z"/>
	<path class="st1" d="M541.2,266.2c-2.5-0.5-1.7-3.4,1.1-3.8c1.6-0.3,2.2,0.1,2.2,1.5C544.5,266.2,543.7,266.8,541.2,266.2z"/>
	<path class="st1" d="M414.2,261.3c-1.2-1.2-0.7-3.3,0.8-3.3c1.7,0,1.9,0.9,0.7,2.8C415.2,261.5,414.6,261.7,414.2,261.3z"/>
	<path class="st1" d="M405.7,233.1c-0.2-3.8,1.1-6.4,2.1-3.8c0.6,1.6-0.3,7.7-1.2,7.7C406.3,237,405.9,235.2,405.7,233.1z"/>
	<path class="st1" d="M406.5,225c0-0.7,0.3-1,0.7-0.7c0.3,0.4,0.3,1,0,1.4C406.8,226,406.5,225.7,406.5,225z"/>
	<path class="st1" d="M535.7,205.7c-0.6-0.7-3-1.9-5.2-2.6c-3.2-0.9-4-1.6-4-3.6c0-1.3-0.5-2.7-1-3c-0.7-0.4-0.8-2.5-0.4-5.3
		c1.2-8.4,3.6-8.2,5.7,0.4c1.1,4.3,1.5,4.9,3.9,4.9c1.5,0.1,3,0.4,3.4,0.8c0.4,0.4,1.7-0.1,2.8-1.2c1.2-1,3.4-2.1,4.9-2.3l2.8-0.5
		l-0.7,4.6c-0.3,2.5-1.4,5.4-2.3,6.3C543.3,206.6,537.2,207.5,535.7,205.7z"/>
	<path class="st1" d="M373.5,201.1c0-2.4,1.4-4.1,3.5-4.1s2.2,0.2,1.2,2.5C377.1,201.8,373.5,203.1,373.5,201.1z"/>
	<path class="st1" d="M566.1,189.3c-1.2-1.2-0.6-3.3,0.9-3.3c0.8,0,1.5,0.6,1.5,1.4C568.5,189.1,567.1,190.2,566.1,189.3z"/>
	<path class="st1" d="M549.1,187c-1-1-3.4-2.6-5.4-3.6l-3.5-1.6l2.4-1.9c3.1-2.4,3.6-2.3,4.9,0.1c0.6,1.1,1.7,2,2.4,2
		c1.8,0,5.9,4.7,5.1,5.9C554,189.5,551.2,189.1,549.1,187z"/>
	<path class="st1" d="M385,185c-0.4-0.6-1.8-1.5-3.1-2c-1.3-0.5-2.9-2.1-3.6-3.5c-0.9-2.1-0.8-2.8,0.7-4.5c1-1.1,2.6-2.2,3.5-2.5
		c1-0.3,2.3-1.9,2.9-3.5c0.6-2,1.7-3,3-3c2.4,0,3.2,1.9,1.8,4.4c-0.5,1.1-1,4.4-1.1,7.3C389,183.1,386.5,187.5,385,185z"/>
	<path class="st1" d="M585.3,92.3c2-3.8,2.2-9,0.7-12.6c-0.9-2.1-1.3-4.8-0.9-6.2c0.4-1.7-0.1-3.3-1.5-5.1c-1.2-1.5-2.1-3.5-2.1-4.5
		c0-2.7-1.1-5-2.1-4.3c-0.5,0.3-0.9-0.4-0.9-1.6s0.4-1.9,0.9-1.5c0.5,0.3,1.3-0.4,1.6-1.5c1.2-3.7,2.9-1.5,4.5,5.3
		c0.9,3.8,2.4,7.6,3.8,9c2.7,2.9,3.2,11.6,0.6,14.1c-0.8,0.9-1.4,2.4-1.3,3.3c0.4,3-1.2,7.3-2.7,7.3C584.8,94,584.7,93.5,585.3,92.3
		z"/>
	<path class="st1" d="M572.8,51.8c-1.8-7.7-1.9-9.5-0.8-10.7c1.7-1.7,5.1-0.6,7.1,2.5c1.5,2.2,1.4,2.7-0.6,6.9
		c-1.2,2.5-2,5.2-1.7,5.9c0.3,0.8,0,2.1-0.6,3C575.2,60.8,574.6,59.5,572.8,51.8z"/>
	<path class="st1" d="M551,42c-0.8-1.6-1.5-4.2-1.5-5.7c0.1-2.6,0.1-2.6,1.1-0.8c0.6,1.1,2.3,3,3.7,4.2c1.5,1.3,2.3,2.7,1.9,3.7
		C555.2,45.9,552.7,45.3,551,42z"/>
	<path class="st1" d="M564.3,42.8c-0.2-1.9-0.8-2.2-3.5-2l-3.3,0.3v-5V31h3.9c4.1,0,7.1,2,7.1,4.6c0,2.3-2.4,9.4-3.2,9.4
		C564.9,45,564.5,44,564.3,42.8z"/>
	<path class="st1" d="M402.2,38.3c-1.4-1.3-0.6-5.4,1.4-7.4l2-2l2,2.5c2.3,2.9,1.7,4.9-1.7,6.5C403,39.2,403,39.2,402.2,38.3z"/>
	<path class="st1" d="M495.8,37.3c-0.3-1-0.8-2.1-1-2.5c-0.2-0.5,0.2-0.8,1-0.8c1.7,0,3,3.7,1.6,4.6
		C496.9,38.9,496.2,38.3,495.8,37.3z"/>
	<path class="st1" d="M480.3,34.4c-0.5-0.4-0.8-2.5-0.8-4.8c0-2.8,0.3-3.7,1.1-2.9c0.6,0.6,0.9,2.7,0.7,4.8
		C481.1,33.5,480.7,34.8,480.3,34.4z"/>
	<path class="st1" d="M493.3,32.4c-1.3-1.2-0.9-4.5,1.1-10.9l1.9-6L494,13c-1.3-1.4-2.5-3.6-2.7-5L491,5.5l9.5,0.3
		c5.2,0.2,9.8,0.9,10.2,1.4c0.3,0.6,0.6,3.7,0.6,6.9c0,4.5-0.3,5.6-1.4,5.2c-0.8-0.3-1.7-1.6-2-2.8c-0.3-1.3-1.7-3.4-3.1-4.7
		l-2.5-2.3l-2.5,2.9c-2.4,2.9-2.6,5-0.8,9.8c0.5,1.3,0,2-1.8,2.7c-2,0.8-2.6,1.8-2.9,4.6C494.1,31.5,493.7,32.8,493.3,32.4z"/>
	<path class="st1" d="M514.2,28.5c-2.1-4.3-2.1-5.5-0.3-5.5c1.9,0,3.2,1.9,4.1,5.8C518.9,33.3,516.4,33.1,514.2,28.5z"/>
	<path class="st1" d="M525.9,29.5c-2-3.1-1.2-7.1,1.6-7.8c1.6-0.4,2-1.3,2-5c0-4.9,0.3-5.2,7.1-6.2c4.8-0.6,5.8-0.2,14.7,7
		c4.1,3.3,5.1,4.7,5.5,8c0.3,2.2,0.5,4.1,0.3,4.2c-0.1,0.1-2.6-0.5-5.5-1.4c-5.4-1.5-5.3-1.6-11.3,1.5c-0.3,0.2-0.9-1.6-1.3-4
		c-1.2-8.3-1.7-9.8-2.9-9.8c-2.2,0-5.3,5.5-6.1,10.8C529.2,32.6,528.3,33.2,525.9,29.5z"/>
	<path class="st1" d="M454.5,22.1c0-1.1,0.5-2.3,1-2.6c0.6-0.4,1,0.5,1,1.9c0,1.4-0.4,2.6-1,2.6C455,24,454.5,23.1,454.5,22.1z"/>
	<path class="st1" d="M519.6,17.2c-0.6-1.1-1.1-3.6-1.1-5.6c0-2.6,0.5-3.6,2.1-4.1c1.3-0.4,2.6-0.2,3.4,0.6c1,1.1,0.8,2.3-1,6.3
		C520.9,18.8,520.6,19.1,519.6,17.2z"/>
	<path class="st1" d="M455.5,17c0-0.7,0.3-1,0.7-0.7c0.3,0.4,0.3,1,0,1.4C455.8,18,455.5,17.7,455.5,17z"/>
	<path class="st1" d="M474.8,16.2c-0.4-0.9-1.3-2.3-2-3c-1.5-1.5-0.9-3.2,1.1-3.2c0.7,0,2.5-1.3,4.1-3c3.3-3.4,6.3-3.8,9.4-1.2
		c2.2,1.7,2.2,1.7-4.9,6.9C476.4,17.2,475.3,17.7,474.8,16.2z"/>
</g>
<g id="layer2">
	<path class="st0" d="M381.8,583.2c-0.7-0.5-0.9-1.9-0.4-4.2c0.7-3.4,0.8-3.5,5.9-3.6c5.7-0.2,6.5,0.4,5.7,3.8
		c-0.4,1.6-1.8,2.7-4.5,3.6C383.9,584.2,383.4,584.2,381.8,583.2z"/>
	<path class="st0" d="M384,572.1c-3.3-0.7-3.5-2.2-0.5-3.3c1.4-0.5,2.8,0,4.7,1.7c2.5,2.2,2.6,2.4,0.8,2.4
		C387.9,572.8,385.7,572.5,384,572.1z"/>
	<path class="st0" d="M355.3,559.8c-2.3-1.8-3-1.9-4.3-0.8c-1.2,1-1.5,1-1.5-0.3c0-0.8,0.9-1.7,2-2c1.6-0.4,2-1.4,2-4.5
		s0.8-5,4.2-9.1c2.8-3.5,4.5-4.8,5.2-4.1c1.6,1.6,2.4,1.2,4-1.9c1.8-3.5,7.5-5.9,9.1-3.9c2.1,2.7,5.6,4,7.1,2.7
		c1.1-0.9,1.4-0.8,1.4,0.4c0,1.9-2.6,4.1-3.4,2.8c-0.3-0.5-1.5-0.7-2.6-0.4c-3.8,1-1.7,6.3,3,7.8c2.6,0.8,2.6,2.2,0,3
		c-2.4,0.8-4-0.1-4-2.1c0-2.2-1.8-1.7-3.6,1.1c-0.9,1.4-2.5,2.5-3.5,2.5c-2.3,0-3.7,2.9-1.9,4c1.9,1.2-0.4,4.6-3.7,5.3
		c-1.5,0.4-3.7,0.9-4.8,1.1C358.8,561.7,356.9,561,355.3,559.8z M367.2,546.3c-0.4-0.3-0.7,0-0.7,0.7s0.3,1,0.7,0.7
		C367.5,547.3,367.5,546.7,367.2,546.3z"/>
	<path class="st0" d="M372.8,520.3c-0.7-0.2-1.3-1.4-1.3-2.5c0-2.7,4.4-12.1,6.5-13.8c0.8-0.7,1.5-1.8,1.5-2.5c0-0.7,1.1-2,2.5-2.9
		c1.3-0.9,2.9-3.3,3.4-5.3c0.6-2.1,2.8-5.7,4.9-7.9c3.5-3.9,4.3-4.2,10.2-4.8c3.6-0.3,7.9-0.5,9.5-0.5c1.7,0.1,6.2,0,10.1-0.1
		c3.9-0.2,7.6,0,8.2,0.4c1.8,1.1-0.7,5.4-3.5,6.1c-3.3,0.8-9.8,5-11.5,7.3c-0.7,1.1-3.3,2.9-5.8,4.2c-2.5,1.3-5.1,3.1-5.8,4.1
		c-0.7,1.1-1.9,1.9-2.6,1.9c-0.7,0-2.3,1.1-3.6,2.5s-2.9,2.5-3.5,2.5s-2.6,1.6-4.5,3.5c-1.9,1.9-4.1,3.5-5.1,3.5
		c-0.9,0-2.8,1.1-4.3,2.5C375.3,521.1,374.9,521.2,372.8,520.3z"/>
	<path class="st0" d="M419,509c0.3-0.5,1.1-1,1.6-1c0.6,0,0.7,0.5,0.4,1c-0.3,0.6-1.1,1-1.6,1C418.8,510,418.7,509.6,419,509z"/>
	<path class="st0" d="M425.2,501.3c-1.1-1,1.3-3.3,3.5-3.3c1.6,0,1.7,0.3,0.8,2C428.4,502,426.4,502.6,425.2,501.3z"/>
	<path class="st0" d="M427.1,495.2c-1-1.7,0.3-5.2,1.9-5.2c2.3,0,2.6,1.7,0.7,4.1C428.4,495.6,427.6,496,427.1,495.2z"/>
	<path class="st0" d="M434,485c-0.3-0.5,0.3-1,1.4-1c1.2,0,2.1,0.5,2.1,1c0,0.6-0.6,1-1.4,1C435.3,486,434.3,485.6,434,485z"/>
	<path class="st0" d="M442,468.8c-0.9-2.2,0.4-4.3,1.7-3c0.7,0.7,0.7,1.6,0,2.9C442.7,470.4,442.6,470.4,442,468.8z"/>
	<path class="st0" d="M354,462.9c-0.8-2.5,0.8-3.8,4.5-3.9l2.5-0.1l-2.3-1.9l-2.4-2l2.6-1.1c2.2-1,2.8-0.9,4.4,1.1
		c1.9,2.3,1.9,2.3-1.8,6.2C357.3,465.5,355,466,354,462.9z"/>
	<path class="st0" d="M415.5,453.9c0-0.5,0.5-0.7,1-0.4c0.6,0.3,1,0.8,1,1.1c0,0.2-0.4,0.4-1,0.4C416,455,415.5,454.5,415.5,453.9z"
		/>
	<path class="st0" d="M497.5,452.1c-3.1-0.4-4.8-1.2-5.5-2.7c-0.5-1.1-1.8-2.8-2.8-3.8s-1.7-3.3-1.7-5.4c0-5.5-1.1-6.7-4.9-5.4
		c-1.7,0.6-3.1,0.9-3.1,0.6c0-0.3-0.9,0-2,0.6s-2,1.7-2,2.5c0,0.8-0.6,1.5-1.3,1.5c-0.8,0-2.2,0.9-3.2,2c-2.1,2.3-5.5,2.7-5.5,0.6
		c0-1.8,4.6-6.6,6.4-6.6c0.8,0,2.9-1.8,4.6-4c1.7-2.2,3.6-4,4.2-4c0.6,0,3.4-2.4,6.3-5.4c3.2-3.2,6.6-5.7,8.4-6.1
		c1.8-0.4,4.5-2.3,6.4-4.6c1.9-2.1,4.1-3.9,4.9-3.9c0.8,0,2.4-1.1,3.6-2.5c1.2-1.3,3.9-3.3,6.1-4.4c2.1-1.1,4.8-3.1,5.8-4.3
		c1-1.3,2.6-2.7,3.4-3.3c7.6-4.8,10.1-6.9,10.8-8.8c1.3-3.3,5.3-5.1,9.3-4.2c3.5,0.7,6.5,1,23.8,1.9c11.8,0.7,18.9,1.7,27,4.1
		c3,0.8,8.4,2,12,2.6c3.6,0.5,7.1,1.6,7.9,2.4c1.2,1.1,1,1.7-1.4,3.9c-3.4,3.1-5.6,3.3-7.3,0.5c-2.8-4.4-6.2,3.2-4.8,10.7
		c0.6,2.8,1.4,3.8,4.2,5c4.3,1.8,5.2,3.9,2.9,6.4s-3.7,2.5-6,0c-2.4-2.7-2.9-2.5-4,1.3c-1.3,4.3-4.8,4.9-7.7,1.2
		c-1.8-2.3-2.6-2.6-5.5-2c-2.3,0.4-4.2,0.1-5.8-0.9c-3.7-2.5-10.1-2.4-12.8,0.2c-1.8,1.7-3.1,2.1-5.4,1.6c-2.5-0.5-3.2-0.2-3.7,1.4
		c-1.6,4.8-7.4,5.2-9.5,0.6c-0.6-1.3-1.5-2.4-2.1-2.4c-1.5,0-1.2,3.8,0.4,4.7c0.8,0.4,1.8,2.5,2.4,4.6c0.9,3,0.8,4-0.6,5.3
		c-1.4,1.5-1.7,1.5-2.9-0.2c-0.7-1-1.3-2.3-1.3-2.8c0-0.6-1.2-2.4-2.6-4c-2.8-3.2-3.9-2.7-5,2.4c-0.9,4.4-2,5.5-6,6
		c-3,0.4-4.2,1.1-5.2,3.3c-0.8,1.6-2,3.1-2.9,3.4c-0.8,0.3-1.9,1.6-2.4,2.9c-0.4,1.3-1.6,2.4-2.6,2.4c-0.9,0-2.8,1.1-4.2,2.4
		C511.7,452,505,453.1,497.5,452.1z M517.8,445.4c0.9-1-0.4-3.4-1.9-3.4c-1.6,0-1.6,0.2-0.8,2.4
		C515.7,446.1,516.7,446.4,517.8,445.4z M501.5,442c0-1.1-0.4-2-1-2c-0.5,0-1,0.9-1,2s0.5,2,1,2C501.1,444,501.5,443.1,501.5,442z
		 M501.5,437.1c0-1.9-1.7-3.8-2.5-2.9c-0.7,0.7,0.7,4.8,1.6,4.8C501.1,439,501.5,438.1,501.5,437.1z M517.5,420.4
		c0-0.8-0.4-1.4-1-1.4c-0.5,0-1,0.9-1,2.1c0,1.1,0.5,1.7,1,1.4C517.1,422.2,517.5,421.2,517.5,420.4z M508.2,419.8
		c-0.3-0.8-0.6-0.5-0.6,0.6c-0.1,1.1,0.2,1.7,0.5,1.3C508.4,421.4,508.5,420.5,508.2,419.8z M559.3,414.3c-0.1-0.5,0.2-1.8,0.6-3.1
		c0.5-1.4,0.3-2.9-0.5-3.8c-1.5-1.8-2.7-0.8-2.9,2.6c-0.3,4.1-0.1,5,1.5,5C558.8,415,559.4,414.7,559.3,414.3z M590.5,413
		c0-2-2.5-3.8-3.7-2.6c-0.5,0.5,2.4,4.6,3.4,4.6C590.3,415,590.5,414.1,590.5,413z M514,411.9c0.4-1.1,0.4-2.3,0.1-2.7
		c-1-0.9-3.9,2.5-3.2,3.7C512,414.6,513.3,414.2,514,411.9z M523.1,410c0-1.4,0.6-3.5,1.2-4.7c0.7-1.2,1.2-2.4,1.2-2.7
		c0-1.4-2.4-0.4-4.5,1.8c-1.2,1.3-2.8,2.6-3.6,2.9c-1.1,0.5-1.1,0.8,0.4,1.7c0.9,0.6,1.7,1.8,1.7,2.6
		C519.5,414.3,523,412.7,523.1,410z M583.2,405.3c-0.4-0.3-0.7,0-0.7,0.7c0,0.7,0.3,1,0.7,0.7C583.5,406.3,583.5,405.7,583.2,405.3z
		 M566.4,399c3.4-5.2,6.3-6.6,5.8-2.9c-0.1,1.2,0.4,2.4,1.1,2.6c0.7,0.3,1.2-0.4,1.2-1.5c0-1.4,0.9-2.1,3.1-2.6
		c2.1-0.4,3-1.1,2.7-2.2c-0.2-1.2-1.5-1.7-4.8-1.9c-2.5-0.1-5.4-0.5-6.6-0.9c-1.8-0.7-2.3-0.1-3.8,4.1c-1.5,4-2.7,10.3-2.1,10.3
		C563.1,404,564.6,401.8,566.4,399z M596.5,402.6c0-0.8-0.4-1.7-0.9-2.1c-1.2-0.7-2.4,1.2-1.6,2.5
		C594.9,404.5,596.5,404.2,596.5,402.6z M535.8,400.9c2.3-1.2,5.8-2.4,7.7-2.8c2.7-0.5,4-1.5,5.5-4.3c1.1-2,1.6-4,1.2-4.4
		c-0.4-0.4-2.9-0.8-5.6-0.8c-4.7,0-5.2,0.3-11.4,6.4c-3.6,3.5-6.4,6.8-6.1,7.2C528,403.6,531.5,403.1,535.8,400.9z"/>
	<path class="st0" d="M358.5,449c0-0.5,0.5-1,1-1c0.6,0,1,0.5,1,1c0,0.6-0.4,1-1,1C359,450,358.5,449.6,358.5,449z"/>
	<path class="st0" d="M444.5,447.6c0-0.8,0.5-1.8,1-2.1c0.6-0.3,1,0.3,1,1.4c0,1.2-0.4,2.1-1,2.1C445,449,444.5,448.4,444.5,447.6z"
		/>
	<path class="st0" d="M356,445c-0.4-0.7,0-1.9,0.9-2.8c1.5-1.5,1.8-1.5,2.6-0.2c0.5,0.8,0.8,2,0.7,2.5
		C359.7,446,356.8,446.3,356,445z"/>
	<path class="st0" d="M217.2,435c0.3-1.1,0.7-2,0.9-2c0.2,0,0.8,0.9,1.4,2c0.9,1.7,0.8,2-0.9,2C217.2,437,216.8,436.5,217.2,435z"/>
	<path class="st0" d="M428.8,432.8c-0.4-0.7-0.7-2.2-0.8-3.3c0-2.5-4.6-3.3-6.5-1.1c-0.8,1-2.9,1.6-5.6,1.6c-3.5,0-4.9-0.6-7.9-3.5
		c-3.3-3-3.7-3.9-3.3-7.4c0.2-2.7-0.1-4.2-0.9-4.5c-0.7-0.3-1.3-1.5-1.3-2.6c0-1.7-0.5-2.1-2.4-1.8c-1.7,0.2-3.5-0.7-5.7-2.7
		c-2.1-2-3.3-2.6-3.6-1.7c-0.9,2.3-3.8,1.2-5-1.8c-1-2.7-1.5-3-5.6-3c-5.8,0-7.7-0.8-7.7-3.1c0-1.2-1.1-2.4-2.7-3.2
		c-1.6-0.6-5-3.4-7.8-6c-2.7-2.7-6.8-5.8-9-6.9c-2.2-1.2-4.5-2.8-5.2-3.7c-1.1-1.4-1.6-1.4-5.5,0.7c-2.4,1.2-5.4,2.2-6.7,2.2
		c-1.3,0-4.1,1.6-6.2,3.5c-2.2,1.9-5,3.5-6.3,3.5c-2.6,0-3.9,2-3,4.5c0.4,0.8,1.5,1.5,2.5,1.5c2,0,5.5,5.5,4.1,6.4
		c-1.7,1.1-5.2-0.7-5.2-2.6c0-1.3-0.6-1.8-1.9-1.6c-1,0.2-3.3-1-5.1-2.5c-4.9-4.4-8.3-4.4-16.5-0.2c-3.8,2-8,4.6-9.3,5.7l-2.2,2.2
		l-2.8-2.7c-3.5-3.3-4.5-3.4-6.2-0.2c-0.7,1.4-1.7,2.5-2.2,2.5c-2,0-8.2-3.1-9.4-4.8c-1.3-1.6-1.5-1.5-3.3,0.8c-2.2,2.8-3.9,2-4.3-2
		c-0.3-2.1,0.1-2.5,2.7-2.7c12.6-1,30.4-4,37.5-6.3c12.5-4,19.5-6,21.1-6c0.8,0,1.9-0.8,2.6-1.9c0.7-1.1,2.9-2.1,5.5-2.5
		c6.7-1,14-3.7,17-6.2c3.3-2.7,6.9-2.2,14,2c2.4,1.4,5.2,2.6,6.1,2.6c0.9,0,2.1,0.9,2.7,2c0.6,1,2.7,2.7,4.8,3.6
		c2,1,7.5,4.7,12.2,8.4c8.6,6.6,21,15,22.3,15c2.3,0,18.7,15.5,18.7,17.7c0,0.6,0.9,1.8,2,2.8c1.2,1,1.9,2.4,1.6,3.1
		c-0.3,0.7-0.1,1.4,0.3,1.6c1.2,0.5,2.3,5.8,1.2,5.8C430.1,434,429.3,433.4,428.8,432.8z"/>
	<path class="st0" d="M216.1,430.3c-1.1-1.1-0.6-2.3,0.9-2.3c0.8,0,1.5,0.4,1.5,0.9C218.5,430.2,216.9,431.1,216.1,430.3z"/>
	<path class="st0" d="M215.1,421.4c-1-2.7-0.7-4.4,0.9-4.4c1,0,1.5,1,1.5,3C217.5,423.2,216.1,424,215.1,421.4z"/>
	<path class="st0" d="M458.5,419c0-0.7,0.3-1,0.7-0.7c0.3,0.4,0.3,1,0,1.4C458.8,420,458.5,419.7,458.5,419z"/>
	<path class="st0" d="M190.5,410.5c0-1.6-0.6-2.5-1.5-2.5c-1.8,0-1.9-1.4-0.4-4.1c1-2,1.1-2,2.8,0.3c1.3,1.6,1.7,3.4,1.4,5.6
		C192.2,413.6,190.5,414.1,190.5,410.5z"/>
	<path class="st0" d="M210.7,410.8c-0.7-0.7-1.2-2-1.2-3c0-0.9-0.8-2.2-1.9-2.7c-2.7-1.5-3.5-4.1-1.2-4.1c3.1,0,6.1,3.3,6.8,7.3
		C213.8,412.1,212.9,413,210.7,410.8z"/>
	<path class="st0" d="M466.2,410.3c-1.3-1.2-0.7-2.4,1.8-3.3c1.4-0.5,2.5-1.6,2.5-2.4c0-0.7,0.7-1.6,1.5-2c2.5-0.9,1.8,3.2-1,5.9
		C468.5,411.1,467.3,411.5,466.2,410.3z"/>
	<path class="st0" d="M251.5,406c0-0.5,0.5-1,1.1-1c0.5,0,0.7,0.5,0.4,1c-0.3,0.6-0.8,1-1.1,1C251.7,407,251.5,406.6,251.5,406z"/>
	<path class="st0" d="M183.7,399.8c-0.8-0.8-0.8-1.5-0.1-2.4c0.8-1,1.4-0.9,3,0.7c1,1,1.9,2.1,1.9,2.4
		C188.5,401.5,184.9,401,183.7,399.8z"/>
	<path class="st0" d="M245.8,398.8c-0.7-1.1-1-5.8-0.4-8.4c0-0.3,1.1,0.2,2.3,1c1.2,0.9,3.3,1.6,4.5,1.6c2.9,0,4.9,3.5,3.2,5.6
		C254,400.3,247.1,400.5,245.8,398.8z"/>
	<path class="st0" d="M178.5,391.5c0-0.8,0.4-1.5,0.9-1.5s1.4,0.7,2.1,1.5c1,1.3,0.9,1.5-0.9,1.5C179.4,393,178.5,392.4,178.5,391.5
		z"/>
	<path class="st0" d="M619.3,392.3c0.6-0.2,1.8-0.2,2.5,0c0.6,0.3,0.1,0.5-1.3,0.5S618.6,392.6,619.3,392.3z"/>
	<path class="st0" d="M480.5,390c0-0.5,0.5-1,1-1c0.6,0,1,0.5,1,1c0,0.6-0.4,1-1,1C481,391,480.5,390.6,480.5,390z"/>
	<path class="st0" d="M470.5,387.3c0-0.5,1.7-2.7,3.8-4.9c7-7.6,10.2-11.6,10.2-13c0-0.8,1.7-3.1,3.8-5.2c2.1-2,4.4-4.6,5-5.7
		c1.1-1.9,1.1-1.8,1.2,0.8c0,1.5-0.4,2.7-1,2.7c-0.5,0-1,1.1-1,2.5c0,3.7-3.6,10.2-6,11c-1.1,0.3-2,1.3-2,2.1s-2.2,2.5-5,3.7
		c-3.2,1.4-5,2.9-5.2,4.2C474,387.4,470.5,389.1,470.5,387.3z"/>
	<path class="st0" d="M171,381c0.3-0.5,1.3-1,2.1-1c0.8,0,1.4,0.5,1.4,1c0,0.6-0.9,1-2.1,1C171.3,382,170.7,381.6,171,381z"/>
	<path class="st0" d="M456.8,375.5c-1-2.3-0.9-2.6,1.3-3.1c3.3-0.8,4,0,2.6,3.1C459.2,378.6,458.3,378.6,456.8,375.5z"/>
	<path class="st0" d="M441.8,363.3c0.4-0.3,1-0.3,1.4,0c0.3,0.4,0,0.7-0.7,0.7S441.5,363.7,441.8,363.3z"/>
	<path class="st0" d="M445,360.1c-0.3-0.5-0.1-1.2,0.4-1.5s1.1,0.1,1.5,0.9C447.5,361.1,446,361.6,445,360.1z"/>
	<path class="st0" d="M396.1,350.3c-1.1-1.1-0.6-2.3,0.9-2.3c0.8,0,1.5,0.4,1.5,0.9C398.5,350.2,396.9,351.1,396.1,350.3z"/>
	<path class="st0" d="M456.1,316.3c-1.1-1.1-0.6-2.3,0.9-2.3c0.8,0,1.5,0.4,1.5,0.9C458.5,316.2,456.9,317.1,456.1,316.3z"/>
	<path class="st0" d="M477.2,309.3c-0.8-0.8-0.9-4.3-0.1-4.3c0.3,0,1.2,0.6,1.9,1.4c1.2,1.2,1.2,1.6,0.1,2.5
		C478.4,309.5,477.5,309.7,477.2,309.3z"/>
	<path class="st0" d="M494.5,294.2c0-1.8-0.1-3.5-0.2-3.9c-0.1-0.5,0.6-0.9,1.5-1.1c1.4-0.3,1.6,0.2,1.1,3
		C496,296.8,494.5,298.1,494.5,294.2z"/>
	<path class="st0" d="M436.3,288.6c-1.5-3.3-0.4-5.6,2.7-5.6s3.9,1.7,2.6,5.3C440.3,291.7,437.8,291.8,436.3,288.6z"/>
	<path class="st0" d="M457.2,287.3c-1.3-1.2-0.7-2.3,1.3-2.3c1.1,0,2,0.7,2,1.5C460.5,288,458.4,288.6,457.2,287.3z"/>
	<path class="st0" d="M441.3,269.3c0.7-0.3,1.6-0.2,1.9,0.1c0.4,0.3-0.2,0.6-1.3,0.5C440.8,269.9,440.5,269.6,441.3,269.3z"/>
	<path class="st0" d="M340.7,263.3c0.4-3.6,3.3-3.9,3.3-0.3c0,1.6-0.6,2.6-1.8,2.8C340.7,266.1,340.4,265.6,340.7,263.3z"/>
	<path class="st0" d="M502,261.7c-0.2-0.6-0.6-2.3-0.9-3.7c-0.3-1.4-2.4-4.9-4.6-7.8c-2.2-2.9-4-5.7-4-6.2s-1.4-1.6-3-2.5
		c-2.4-1.2-3.5-1.3-5.2-0.4c-1.6,0.9-2.3,0.9-2.6,0c-0.7-2.1-2.9-1.1-2.9,1.4c0,3.1-0.4,3.6-3.4,3.8c-1.3,0.1-3,0.7-3.8,1.5
		c-1,1-2.6,1.2-6,0.6c-2.5-0.4-6.5-0.7-8.8-0.7c-2.4,0.1-4.3-0.4-4.3-0.9c0-2-3.4-0.2-4,2.2c-0.6,2.6-3.5,3.9-5.1,2.3
		c-0.5-0.5-0.6-2.3-0.3-4l0.6-3.1l8,0.2c7.5,0.1,8.1-0.1,9.1-2.2c0.8-1.6,0.7-2.6-0.1-3.4c-1.7-1.7-1.5-2.8,0.7-2.8
		c3.1,0,3.9-2.2,3.5-9.8c-0.3-5.9,0-8,1.7-11.2c2.5-4.7,3-5.2,4.9-4c1.1,0.7,1.2,1.2,0.3,2.1c-1,1-1,4.5,0.3,10.7
		c0.4,2.1,0.6,2.1,2,0.7c0.8-0.8,2-1.5,2.5-1.5s1.4-1.1,1.9-2.5c0.7-1.8,1.7-2.5,3.5-2.5c2.2,0,2.5,0.3,1.9,2.5
		c-0.5,2.1,0.1,3.2,3.5,6.4c2.8,2.5,4.1,4.6,4.1,6.4c0,1.4,0.6,2.7,1.3,3c2.3,0.8,8.2-0.5,10.2-2.4c1.7-1.5,2.5-1.6,5.8-0.6l3.9,1.2
		l-0.7,5c-0.6,5-3.3,10.5-6.7,13.8c-2.5,2.4-2.4,5.7,0.2,5.7c2.8,0,2.5,1.5-0.5,2.8C503,262.7,502.3,262.7,502,261.7z"/>
	<path class="st0" d="M538.5,256.5c0-0.8,0.4-1.5,1-1.5c0.5,0,0.7,0.7,0.4,1.5c-0.4,0.8-0.8,1.5-1,1.5
		C538.7,258,538.5,257.3,538.5,256.5z"/>
	<path class="st0" d="M349.5,256c0-0.7,0.3-1,0.7-0.7c0.3,0.4,0.3,1,0,1.4C349.8,257,349.5,256.7,349.5,256z"/>
	<path class="st0" d="M437.5,252c0-1.1,0.5-2,1-2c0.6,0,1,0.9,1,2c0,1.1-0.4,2-1,2C438,254,437.5,253.1,437.5,252z"/>
	<path class="st0" d="M486.8,253.3c0.4-0.3,0.3-1.1-0.2-1.7c-0.6-0.7-0.3-2,0.9-3.6c1.5-2,2.1-2.3,3.1-1.2c1,0.9,1,1.5,0.1,2.4
		c-0.7,0.7-1.2,2-1.2,3s-0.7,1.8-1.7,1.8C486.9,254,486.5,253.7,486.8,253.3z"/>
	<path class="st0" d="M349.5,250.1c0-1.1,3.9-2.5,4.7-1.8c0.3,0.3,0.2,1-0.2,1.6C353.2,251.2,349.5,251.4,349.5,250.1z"/>
	<path class="st0" d="M338.5,245.6c0-2.6,4.3-6.8,6.3-6c1.4,0.5,1.5,0.9,0.6,2c-0.6,0.8-1.5,1.2-1.9,0.9c-0.4-0.2-1.3,0.7-2,2
		C340,247.3,338.5,247.8,338.5,245.6z"/>
	<path class="st0" d="M512.5,228.7c0-5.3,1.5-6.3,2.5-1.6c0.5,2.2,0.3,3.6-0.9,4.7C512.6,233.3,512.5,233,512.5,228.7z"/>
	<path class="st0" d="M341.7,223.6c0.2-1.6,0.9-3.1,1.6-3.4c1.7-0.5,1.5,2-0.3,4.4C341.5,226.4,341.5,226.4,341.7,223.6z"/>
	<path class="st0" d="M512.6,214.2c-1.6-2.9-1.4-6.2,0.4-6.2c1.9,0,3,4.3,1.7,6.6C513.8,216.2,513.7,216.2,512.6,214.2z"/>
	<path class="st0" d="M477.7,212.3c-1.9-0.9-3.6-2.3-3.9-3c-0.8-2.1,2.5-5.2,6.1-5.5c3-0.3,3.1-0.5,3.1-4.8c0-4.5,0-4.5,3.5-4.4
		c2,0,3.9-0.6,4.4-1.4c0.7-1.2,1-1.2,1.7-0.1c1.3,2.1,1.1,2.9-0.9,2.9c-1.2,0-2.2,1.7-3.6,6.3c-1.9,6-5,11.7-6.4,11.7
		C481.3,214,479.5,213.2,477.7,212.3z"/>
	<path class="st0" d="M484.7,186.5c-1.6-3.4-1.5-4.5,0.2-4.5c1.9,0,3,3.5,1.8,5.5C486,188.8,485.7,188.7,484.7,186.5z"/>
	<path class="st0" d="M467.3,185.4c-0.4-0.3-4.8-0.7-9.9-1c-11.8-0.5-15.2-1.8-17.3-6.1c-0.9-1.9-1.6-4.1-1.6-4.9
		c0-0.8-1.5-2.1-3.4-2.9s-4.4-2.6-5.5-4.1c-1.8-2.3-2-3.6-1.5-10c0.4-6.2,0.3-7.5-1.1-8c-0.9-0.4-2.4,0.1-3.4,1
		c-1.7,1.5-2.4,1.6-6,0.5c-2.3-0.7-4.1-1.3-4.1-1.5c0-0.2,1.3-1.7,2.8-3.4l2.9-3.1l1.7,2.5c2,3.1,4.2,3.3,4.9,0.5
		c0.4-1.6,1.1-1.9,2.6-1.4c2.9,0.9,10-1.4,13.9-4.6c2-1.6,4.1-2.5,5.2-2.2c1.1,0.3,3.3-0.5,4.9-1.6c3.4-2.5,9.8-2.7,14.3-0.4
		c1.7,0.8,4.3,1.1,7.2,0.7c3.6-0.5,5.1-0.3,6.5,1c1,0.9,4.1,2.3,6.9,3.1c5.7,1.7,7.8,4.9,4.7,7.1c-1.5,1.1-1.6,1.6-0.6,2.8
		c1.3,1.5,0.7,3.6-0.8,3.6c-0.5,0-1.1-0.9-1.4-2.1c-0.4-1.6-1.2-2-3.8-1.7c-4.5,0.4-4.7,2.4-0.5,3.9c2.3,0.8,3.6,1.9,3.6,3.1
		c0,1.9,3.4,2.5,4.5,0.8s2.6,0,2,2.1c-0.9,2.6,1.1,4.9,4.1,4.9c2.4,0,3.3,2.3,1.4,3.5c-0.6,0.4-0.5,1.6,0.1,3.3
		c0.9,2.3,0.7,2.9-1.2,4.5c-3.1,2.5-6.7,3.2-9.4,1.7c-3-1.6-7.6-0.2-9,2.7c-0.5,1.2-1.9,2.6-3.2,3.2c-1.3,0.6-2.3,1.5-2.3,2.1
		C475.5,186,468.3,186.4,467.3,185.4z M469.2,177.4c3.7-2.8,4.2-5.7,1.7-9.2c-1.8-2.5-3.6-2.8-6.7-0.8c-3.1,2-10.4,2.8-12.8,1.5
		c-2.7-1.4-5.2,0.6-4.3,3.5c1.3,4.2,4.3,6.5,7.9,5.9c1.8-0.3,4.1,0,5.1,0.6C463.1,180.6,465.6,180.2,469.2,177.4z M457.2,153.9
		c2.5-1,2.6-1.2,0.9-1.8c-1.5-0.6-0.4-1.1,4-1.9c3.2-0.7,6.5-1.6,7.3-2.1c2.3-1.4,0.5-4.1-2.9-4.2c-3.4-0.2-3.8-0.2-6.3-1.4
		c-1.1-0.4-2.3-0.3-3,0.4c-0.6,0.6-1.8,1.1-2.6,1.2c-0.9,0-2.9,1.6-4.6,3.6l-2.9,3.5l2.3,1.9C452.1,155.3,453.3,155.4,457.2,153.9z"
		/>
	<path class="st0" d="M416.2,158.8c-0.8-2.3,1.9-5,4.7-4.6c2.4,0.3,2.5,0.5,1.3,2.8C420.8,159.8,417,160.9,416.2,158.8z"/>
	<path class="st0" d="M564.3,137.3c-1-0.2-1.8-0.9-1.8-1.4c0-1.3,1.2-1.1,3.4,0.6C567.9,138,567.5,138.2,564.3,137.3z"/>
	<path class="st0" d="M549.2,133.5c-3-1.7-3.5-2.4-2.2-2.9c0.9-0.3,2.5-0.6,3.5-0.6c2.5,0,8,3.2,8,4.8
		C558.5,136.7,553.4,136.1,549.2,133.5z"/>
	<path class="st0" d="M441.8,122.3c0.4-0.3,1-0.3,1.4,0c0.3,0.4,0,0.7-0.7,0.7S441.5,122.7,441.8,122.3z"/>
	<path class="st0" d="M533.5,118.5c0-1.6,4.3-2.1,7.4-0.9c2.7,1,0.7,2.4-3.5,2.4C534.6,120,533.5,119.6,533.5,118.5z"/>
	<path class="st0" d="M663.5,599.3c0.1-1.8,1.8-3.5,2.4-2.4c0.4,0.6,0.4,1.6,0.1,2.1C665.3,600.2,663.5,600.3,663.5,599.3z"/>
	<path class="st0" d="M765.8,588.3c-2.4-0.3-3.3-1-3.5-2.6c-0.2-1.2-1-2.2-1.8-2.2c-2-0.1-4-1.4-4-2.6c0-1.6,6.4-0.6,8.4,1.3
		c1.1,1,2.7,1.8,3.6,1.8c1.9,0,4,1.9,4,3.7C772.5,589,771.9,589,765.8,588.3z"/>
	<path class="st0" d="M748.9,580.9c-0.3-0.6-0.2-1.5,0.3-2c1.3-1.3,4.3-0.1,4.3,1.7C753.5,582.2,749.9,582.5,748.9,580.9z"/>
	<path class="st0" d="M189.5,571.4c0-0.8,0.5-1.2,1-0.9c0.6,0.3,1,1,1,1.6c0,0.5-0.4,0.9-1,0.9C190,573,189.5,572.3,189.5,571.4z"/>
	<path class="st0" d="M175.6,567.7c-0.7-1-2.7-1.2-6.6-0.9c-5,0.4-5.8,0.2-7.9-2.1c-2.6-2.8-6.1-3.9-17.2-5.7
		c-3.9-0.6-8.6-2.1-10.5-3.2c-3.2-2-5.1-2.1-26.9-2.3c-32.5-0.4-30.9-0.3-28.7-1.9c1.6-1.2,4.4-1.9,13.7-3.2
		c9.1-1.3,20.9-1.9,23-1.1c3.2,1.1,19.6,3.8,23.5,3.8c1.7,0.1,5.7,0.9,9,1.9s7.8,2.2,9.9,2.6c2.1,0.4,5.7,1.7,8,3
		c2.3,1.3,6.1,2.6,8.5,3c4.3,0.7,9.1,4,9.1,6.4C182.5,569.5,176.9,569.2,175.6,567.7z"/>
	<path class="st0" d="M649.5,556.4c0-4.2,2-7.2,4-5.9c1.7,1,1.1,3.8-1.5,7l-2.4,3L649.5,556.4z"/>
	<path class="st0" d="M56.7,555.6c0.1-1,0.8-1.7,1.3-1.7c1.5,0.1,1.2,2.4-0.3,2.9C56.8,557.1,56.4,556.6,56.7,555.6z"/>
	<path class="st0" d="M71,552c0.3-0.5,1-1,1.6-1c0.5,0,0.9,0.5,0.9,1c0,0.6-0.7,1-1.6,1C71.1,553,70.7,552.6,71,552z"/>
	<path class="st0" d="M62.5,548.5c0-0.8,0.5-1.5,1-1.5c0.6,0,1,0.7,1,1.5s-0.4,1.5-1,1.5C63,550,62.5,549.3,62.5,548.5z"/>
	<path class="st0" d="M680,543c0.3-0.5,0.8-1,1.1-1c0.2,0,0.4,0.5,0.4,1c0,0.6-0.5,1-1.1,1C679.9,544,679.7,543.6,680,543z"/>
	<path class="st0" d="M684.5,540.7c1.3-0.7,3-2.3,3.6-3.6c1.5-2.9,3.2-4.1,6.1-4.1c3.8,0,3.7,2.1-0.1,5.6c-3,2.7-4.5,3.4-7.9,3.4
		C682.2,542,682.1,541.9,684.5,540.7z"/>
</g>
</svg>
